<?xml version="1.0" standalone="no"?>
<!DOCTYPE svg PUBLIC "-//W3C//DTD SVG 20010904//EN"
 "http://www.w3.org/TR/2001/REC-SVG-20010904/DTD/svg10.dtd">
<svg version="1.0" xmlns="http://www.w3.org/2000/svg"
viewBox="0 0 220.000000 220.000000"
 preserveAspectRatio="xMidYMid meet">
<g transform="translate(0.000000,220.000000) scale(0.100000,-0.100000)"
fill="#000000" stroke="none">
<path d="M1790 1824 c-29 -27 -56 -59 -61 -71 -8 -21 -11 -22 -126 -16 l-118
5 -38 -30 c-51 -41 -154 -81 -257 -99 -47 -8 -103 -18 -125 -22 -56 -10 -156
-65 -197 -109 -19 -20 -43 -57 -52 -82 -23 -60 -156 -261 -168 -254 -13 8
-136 175 -187 254 -38 58 -42 71 -39 114 3 47 1 51 -29 68 -28 17 -43 18 -165
9 -73 -5 -141 -12 -150 -16 -12 -5 -18 -18 -18 -40 0 -35 13 -45 56 -45 31 0
113 -41 138 -69 19 -21 19 -22 -12 -54 -18 -18 -32 -38 -32 -43 0 -15 155
-191 274 -311 126 -129 133 -130 245 -46 42 31 107 84 146 118 81 69 130 105
144 105 5 0 55 -48 110 -107 84 -89 101 -112 101 -139 0 -17 -29 -121 -64
-230 -55 -169 -86 -299 -86 -357 0 -11 32 -15 156 -20 175 -7 207 0 202 41 -2
20 -12 28 -51 39 -26 8 -51 21 -54 29 -5 14 66 307 87 360 5 12 12 53 15 92
l7 70 -52 103 c-29 57 -70 131 -91 166 -35 57 -37 63 -18 63 11 0 32 6 47 14
15 8 50 17 77 22 62 9 195 56 250 89 l42 24 32 -39 c21 -27 40 -40 56 -40 13
0 66 -27 117 -60 80 -52 99 -60 133 -58 40 3 40 3 63 71 12 38 27 118 33 177
l11 109 -28 52 c-31 57 -42 64 -79 55 -35 -9 -36 -62 -1 -76 54 -20 58 -86 13
-182 -41 -86 -40 -86 -84 -53 -61 46 -173 157 -173 172 0 17 10 16 32 -4 17
-15 20 -14 56 27 57 67 76 103 86 166 10 55 -20 93 -81 101 -39 5 -44 2 -93
-43z"/>
</g>
</svg>
