<svg xmlns="http://www.w3.org/2000/svg" x="0px" y="0px" viewBox="0 0 100 100"><path d="M9.189 12.5v74h81.122v-74H9.189zm43.056 46.769c-.671.832-1.557 1.291-2.495 1.291-.938 0-1.824-.459-2.495-1.291L10.375 13.5h78.749L52.245 59.269zM37.794 49.121l-27.605 35.53V14.863l27.605 34.258zm8.682 10.775c.864 1.073 2.026 1.664 3.273 1.664 1.247 0 2.41-.591 3.274-1.664l8.298-10.298L89.216 85.5h-78.42l27.643-35.579 8.037 9.975zm15.491-11.098l27.344-33.935v69.129L61.967 48.798zM10.189 85.441l.076.059h-.076v-.059z" stroke="#fff" stroke-width="2"/></svg>