<svg xmlns="http://www.w3.org/2000/svg" width="250" height="203.175"><path d="M250 24.055a102.518 102.518 0 0 1-29.458 8.077c10.588-6.348 18.722-16.4 22.552-28.377a102.684 102.684 0 0 1-32.57 12.446C201.167 6.234 187.836.006 173.083.006c-28.324 0-51.29 22.964-51.29 51.29 0 4.02.454 7.934 1.328 11.687-42.627-2.138-80.42-22.558-105.717-53.59A51.068 51.068 0 0 0 10.46 35.18c0 17.793 9.055 33.492 22.818 42.69a51.1 51.1 0 0 1-23.232-6.415c-.004.214-.004.428-.004.645 0 24.85 17.68 45.58 41.143 50.293a51.368 51.368 0 0 1-23.163.88c6.527 20.374 25.468 35.204 47.913 35.617-17.553 13.758-39.67 21.957-63.7 21.957-4.14 0-8.222-.243-12.235-.717 22.698 14.552 49.66 23.045 78.623 23.045 94.342 0 145.933-78.155 145.933-145.934 0-2.22-.05-4.434-.15-6.635A104.164 104.164 0 0 0 250 24.056" fill="#fff"/></svg>