<svg viewBox="0 0 500 404" xmlns="http://www.w3.org/2000/svg" fill-rule="evenodd" clip-rule="evenodd" stroke-linejoin="round" stroke-miterlimit="1.414"><g fill-rule="nonzero"><g fill="#fff" stroke="#000" stroke-width="2.05"><path d="M5.215 2.895v157.419h50.653c69.74 0 82.078-19.26 82.078-78.6 0-59.126-12.338-78.819-82.078-78.819H5.215zm45.453 37.439c32.073.435 41.174.218 41.174 41.38 0 39.21-9.101 41.377-41.174 41.377V40.334z" stroke-width="2.9997854999999998"/><path d="M226.531 160.097h50.886L221.335 3.112h-42.657L121.08 160.097h47.205l7.146-26.205h44.606l6.495 26.205zm-42.007-60.179l14.29-52.843 12.994 52.843h-27.284zM339.146 3.112L313.38 105.097 287.613 3.112h-51.968l56.298 156.985h38.975L387.651 3.112h-48.505z" stroke-width="2.9997854999999998"/><path d="M426.633 122.442V97.508h55.225V63.751h-55.225V40.767h66.054V3.112H381.18v156.985h113.24v-37.655h-67.787zM143.36 335.694l-27.493-56.086c15.8-7.357 20.13-21.207 20.13-46.771 0-44.606-13.204-54.128-76.227-54.128H5.215v156.985h45.453v-48.728h7.584c5.202 0 10.186 0 14.737-.217l19.72 48.945h50.65zM50.668 251.91v-38.794h7.584c24.489 0 33.157.65 33.157 19.504 0 18.638-8.668 19.29-33.157 19.29h-7.584z" stroke-width="2.9997854999999998"/><path d="M192.39 340.242c46.345 0 69.072-20.992 69.072-82.933 0-61.939-22.727-83.148-69.073-83.148-46.344 0-69.07 21.21-69.07 83.148 0 61.94 22.726 82.933 69.07 82.933zm0-39.171c-16.685 0-22.754-8.45-22.754-43.762 0-35.528 6.069-43.977 22.753-43.977 16.47 0 22.538 8.45 22.538 43.977 0 35.313-6.068 43.762-22.538 43.762z" stroke-width="2.9997854999999998"/><path d="M245.319 283.507c0 40.506 18.397 56.735 66.257 56.735 49.158 0 67.122-17.529 67.122-50.665 0-62.96-84.679-40.202-84.679-66.877 0-7.612 6.069-13.266 19.073-13.266 12.135 0 19.721 6.307 19.721 18.486h42.637c0-37.313-17.53-53.976-64.092-53.976-45.475 0-63.224 17.961-63.224 47.235 0 70.565 83.813 41.787 83.813 70.348 0 8.455-7.803 13.226-22.106 13.226-11.483 0-21.236-5.204-21.236-21.246h-43.286z" stroke-width="2.9997854999999998"/><path d="M361.255 283.507c0 40.506 18.397 56.735 66.26 56.735 49.156 0 67.121-17.529 67.121-50.665 0-62.96-84.679-40.202-84.679-66.877 0-7.612 6.069-13.266 19.072-13.266 12.136 0 19.72 6.307 19.72 18.486h42.639c0-37.313-17.532-53.976-64.093-53.976-45.476 0-63.224 17.961-63.224 47.235 0 70.565 83.812 41.787 83.812 70.348 0 8.455-7.8 13.226-22.106 13.226-11.482 0-21.234-5.204-21.234-21.246h-43.288z" stroke-width="2.9997854999999998"/></g><g fill="#fdfefd"><path d="M10.202 367.556v-2.359h5.224v-3.193h-5.224v-2.174h6.248v-3.562H5.903v14.85h10.711v-3.562h-6.412zM27.796 356.268l.102 8.847-4.79-8.847h-4.442v14.85h3.52v-8.705l4.708 8.705h4.47v-14.85h-3.568zM46.115 363.295h-5.878v2.783h2.173v1.128c.02.43-.676.883-2.05.883-1.803 0-2.44-.8-2.44-4.386 0-3.484.596-4.283 2.112-4.283 1.23 0 1.886.533 1.968 2.316h4.094c0-4.117-1.863-5.898-6.062-5.898-4.343 0-6.493 1.945-6.493 7.865s2.15 7.865 6.493 7.845c4.281-.02 6.083-2.047 6.083-2.498v-5.755zM48.474 356.268h4.299v14.85h-4.3zM64.568 356.268l.103 8.847-4.79-8.847H55.44v14.85h3.52v-8.705l4.708 8.705h4.469v-14.85h-3.568zM75.103 367.556v-2.359h5.224v-3.193h-5.224v-2.174h6.248v-3.562H70.804v14.85h10.711v-3.562h-6.412zM87.866 367.556v-2.359h5.224v-3.193h-5.224v-2.174h6.248v-3.562H83.567v14.85h10.711v-3.562h-6.412zM109.397 371.118l-2.6-5.306c1.495-.695 1.903-2.006 1.903-4.424 0-4.22-1.248-5.12-7.21-5.12h-5.16v14.85h4.299v-4.61h.718c.492 0 .963 0 1.393-.02l1.866 4.63h4.791zm-8.768-7.926v-3.67h.718c2.317 0 3.136.062 3.136 1.846 0 1.763-.82 1.824-3.136 1.824h-.718zM110.998 356.268h4.3v14.85h-4.3zM127.093 356.268l.102 8.847-4.79-8.847h-4.442v14.85h3.52v-8.705l4.708 8.705h4.47v-14.85h-3.568zM145.412 363.295h-5.878v2.783h2.173v1.128c.02.43-.676.883-2.05.883-1.803 0-2.44-.8-2.44-4.386 0-3.484.596-4.283 2.112-4.283 1.23 0 1.886.533 1.968 2.316h4.094c0-4.117-1.862-5.898-6.062-5.898-4.343 0-6.493 1.945-6.493 7.865s2.15 7.865 6.493 7.845c4.282-.02 6.083-2.047 6.083-2.498v-5.755zM156.044 367.27v-11.002h-4.299v14.85h9.011v-3.849h-4.712zM166.738 367.556v-2.359h5.224v-3.193h-5.224v-2.174h6.249v-3.562h-10.548v14.85h10.711v-3.562h-6.412zM183.846 371.118h4.813l-5.305-14.85h-4.034l-5.45 14.85h4.466l.677-2.48h4.218l.615 2.48zm-3.973-5.693l1.35-4.998 1.23 4.998h-2.58zM189.993 356.248v14.89h4.793c6.596 0 7.762-1.822 7.762-7.435 0-5.593-1.166-7.455-7.762-7.455h-4.793zm4.3 3.54c3.034.042 3.895.021 3.895 3.915 0 3.708-.86 3.915-3.896 3.915v-7.83zM209.002 367.556v-2.359h5.224v-3.193h-5.224v-2.174h6.248v-3.562h-10.548v14.85h10.712v-3.562h-6.412zM230.533 371.118l-2.6-5.306c1.495-.695 1.903-2.006 1.903-4.424 0-4.22-1.248-5.12-7.21-5.12h-5.16v14.85h4.299v-4.61h.718c.492 0 .963 0 1.393-.02l1.866 4.63h4.79zm-8.768-7.926v-3.67h.718c2.316 0 3.136.062 3.136 1.846 0 1.763-.82 1.824-3.136 1.824h-.718zM236.23 363.251h4.095v-3.172h-4.094v3.172zm0 7.498h4.095v-3.295h-4.094v3.295zM257.144 359.83v-3.562H247.11v14.85h4.3v-5.286h4.711v-3.275h-4.712v-2.727h5.736zM264.849 371.548c4.876 0 6.124-2.109 6.124-7.331v-7.949h-4.36v7.703c0 3.216-.493 3.749-1.785 3.749-1.27 0-1.804-.533-1.804-3.75v-7.702h-4.3v7.949c0 5.222 1.291 7.331 6.125 7.331zM277.959 367.27v-11.002h-4.3v14.85h9.011v-3.849h-4.711zM288.652 367.27v-11.002h-4.299v14.85h9.011v-3.849h-4.712zM294.412 363.07h5.61v3.09h-5.61zM302.258 366.18c0 3.833 1.74 5.368 6.268 5.368 4.65 0 6.349-1.658 6.349-4.792 0-5.958-8.01-3.804-8.01-6.328 0-.72.575-1.254 1.804-1.254 1.149 0 1.866.597 1.866 1.749h4.033c0-3.53-1.658-5.106-6.063-5.106-4.3 0-5.98 1.7-5.98 4.468 0 6.675 7.928 3.952 7.928 6.655 0 .799-.738 1.251-2.091 1.251-1.086 0-2.01-.493-2.01-2.01h-4.094zM327.238 356.268H315.81v3.849h3.565l-.02 11h4.298l.02-11h3.565v-3.849zM336.162 371.118h4.813l-5.305-14.85h-4.034l-5.45 14.85h4.466l.676-2.48h4.22l.614 2.48zm-3.973-5.693l1.35-4.998 1.23 4.998h-2.58zM347.655 371.548c3.872 0 6.124-1.597 6.144-6.431h-4.238c-.102 2.233-.737 2.726-1.906 2.726-1.475 0-2.071-.78-2.071-4.14 0-3.382.596-4.16 2.07-4.16 1.19 0 1.805.492 1.907 2.602h4.238c-.02-4.731-2.313-6.307-6.144-6.307-4.303 0-6.452 2.006-6.452 7.865 0 5.86 2.15 7.845 6.452 7.845zM364.472 371.118h4.979l-5.532-8.234 5.306-6.616h-4.773l-4.302 6.308v-6.308h-4.3v14.85h4.3v-3.524l1.229-1.536 3.093 5.06zM374.76 356.248v14.89h4.792c6.596 0 7.763-1.822 7.763-7.435 0-5.593-1.167-7.455-7.763-7.455h-4.793zm4.299 3.54c3.035.042 3.895.021 3.895 3.915 0 3.708-.86 3.915-3.895 3.915v-7.83zM393.768 367.556v-2.359h5.224v-3.193h-5.224v-2.174h6.248v-3.562H389.47v14.85h10.711v-3.562h-6.412zM410.691 356.268l-2.438 9.646-2.436-9.646H400.9l5.326 14.85h3.687l5.366-14.85h-4.588zM420.912 367.556v-2.359h5.224v-3.193h-5.224v-2.174h6.249v-3.562h-10.548v14.85h10.712v-3.562h-6.413zM433.675 367.27v-11.002h-4.299v14.85h9.011v-3.849h-4.712zM445.948 371.548c4.384 0 6.534-1.986 6.534-7.845s-2.15-7.865-6.534-7.865-6.534 2.006-6.534 7.865c0 5.86 2.15 7.845 6.534 7.845zm0-3.705c-1.577 0-2.152-.8-2.152-4.14 0-3.361.575-4.16 2.152-4.16 1.558 0 2.132.799 2.132 4.16 0 3.34-.574 4.14-2.132 4.14zM454.639 356.248v14.87h4.284l.02-4.22h.696c5.914 0 7.409-.902 7.409-5.325 0-4.425-1.515-5.325-7.286-5.325h-5.123zm4.305 7.21l.02-3.833h.675c2.291 0 3.212.082 3.212 1.907 0 1.823-.92 1.927-3.212 1.927h-.695zM473.255 367.556v-2.359h5.224v-3.193h-5.224v-2.174h6.248v-3.562h-10.547v14.85h10.711v-3.562h-6.412zM494.786 371.118l-2.6-5.306c1.495-.695 1.903-2.006 1.903-4.424 0-4.22-1.248-5.12-7.21-5.12h-5.16v14.85h4.299v-4.61h.718c.492 0 .963 0 1.393-.02l1.866 4.63h4.791zm-8.768-7.926v-3.67h.718c2.317 0 3.136.062 3.136 1.846 0 1.763-.82 1.824-3.136 1.824h-.718zM11.863 400.814c3.872 0 6.124-1.596 6.144-6.431H13.77c-.103 2.233-.738 2.726-1.907 2.726-1.475 0-2.07-.78-2.07-4.14 0-3.381.595-4.16 2.07-4.16 1.19 0 1.804.492 1.907 2.602h4.237c-.02-4.731-2.313-6.307-6.144-6.307-4.302 0-6.452 2.006-6.452 7.865 0 5.86 2.15 7.845 6.452 7.845zM25.997 396.822v-2.359h5.224v-3.193h-5.224v-2.174h6.248v-3.562H21.698v14.85h10.711v-3.562h-6.412zM49.167 400.384l-2.6-5.306c1.495-.695 1.904-2.006 1.904-4.424 0-4.22-1.249-5.12-7.21-5.12H36.1v14.85h4.299v-4.61h.718c.492 0 .963 0 1.394-.02l1.865 4.63h4.791zm-8.768-7.925v-3.67h.718c2.317 0 3.136.061 3.136 1.845 0 1.763-.82 1.825-3.136 1.825H40.4zM62.616 385.534H51.188v3.849h3.565l-.02 11h4.298l.02-11h3.565v-3.849zM65.723 385.534h4.3v14.85h-4.3zM84.363 389.096v-3.562H74.327v14.85h4.3v-5.286h4.711v-3.274h-4.711v-2.728h5.736zM87.541 385.534h4.3v14.85h-4.3zM100.444 396.822v-2.359h5.224v-3.193h-5.224v-2.174h6.249v-3.562H96.145v14.85h10.712v-3.562h-6.413zM110.547 385.514v14.89h4.792c6.597 0 7.763-1.821 7.763-7.435 0-5.592-1.166-7.455-7.763-7.455h-4.792zm4.3 3.541c3.034.041 3.895.02 3.895 3.914 0 3.708-.86 3.915-3.896 3.915v-7.829zM143.62 400.384h4.814l-5.305-14.85h-4.034l-5.45 14.85h4.467l.676-2.479h4.218l.615 2.479zm-3.972-5.692l1.35-4.999 1.23 4.999h-2.58zM156.753 400.814c3.872 0 6.124-1.596 6.144-6.431h-4.238c-.102 2.233-.737 2.726-1.906 2.726-1.475 0-2.071-.78-2.071-4.14 0-3.381.596-4.16 2.07-4.16 1.19 0 1.805.492 1.907 2.602h4.238c-.02-4.731-2.313-6.307-6.144-6.307-4.303 0-6.452 2.006-6.452 7.865 0 5.86 2.15 7.845 6.452 7.845zM172.548 400.814c3.872 0 6.124-1.596 6.144-6.431h-4.238c-.102 2.233-.737 2.726-1.906 2.726-1.475 0-2.071-.78-2.071-4.14 0-3.381.596-4.16 2.07-4.16 1.19 0 1.805.492 1.907 2.602h4.238c-.02-4.731-2.313-6.307-6.144-6.307-4.303 0-6.452 2.006-6.452 7.865 0 5.86 2.15 7.845 6.452 7.845zM186.682 396.822v-2.359h5.224v-3.193h-5.224v-2.174h6.248v-3.562h-10.547v14.85h10.71v-3.562h-6.411zM196.108 395.447c0 3.832 1.74 5.367 6.268 5.367 4.65 0 6.349-1.658 6.349-4.792 0-5.957-8.01-3.803-8.01-6.328 0-.72.575-1.254 1.804-1.254 1.149 0 1.866.597 1.866 1.75h4.033c0-3.53-1.658-5.106-6.063-5.106-4.3 0-5.98 1.698-5.98 4.467 0 6.676 7.928 3.952 7.928 6.655 0 .8-.738 1.251-2.091 1.251-1.086 0-2.01-.493-2.01-2.01h-4.094zM211.719 395.447c0 3.832 1.74 5.367 6.267 5.367 4.65 0 6.35-1.658 6.35-4.792 0-5.957-8.01-3.803-8.01-6.328 0-.72.575-1.254 1.804-1.254 1.148 0 1.865.597 1.865 1.75h4.033c0-3.53-1.658-5.106-6.062-5.106-4.3 0-5.98 1.698-5.98 4.467 0 6.676 7.927 3.952 7.927 6.655 0 .8-.737 1.251-2.09 1.251-1.086 0-2.01-.493-2.01-2.01h-4.094zM228.006 385.534h4.299v14.85h-4.3zM246.382 392.703c1.535-.615 1.964-1.68 1.964-3.197 0-2.764-1.126-3.992-6.616-3.992h-5.12v14.89h4.956c6.556 0 7.394-1.248 7.394-4.198 0-1.66-.408-2.87-2.578-3.503zm-4.775-4.12c2.173 0 2.685.308 2.685 1.416 0 1.086-.512 1.394-2.685 1.394h-.698v-2.81h.698zm-.698 8.751v-3.198h.698c2.583 0 3.115.348 3.115 1.64 0 1.23-.532 1.558-3.115 1.558h-.698zM252.815 385.534h4.299v14.85h-4.3zM265.718 396.535v-11h-4.3v14.849h9.012v-3.849h-4.712zM273.752 385.534h4.299v14.85h-4.3zM292.688 385.534H281.26v3.849h3.564l-.02 11h4.3l.02-11h3.564v-3.849zM308.76 385.534h-4.466l-2.396 6.145-2.477-6.145h-4.876l4.978 9.626v5.224h4.3v-5.204l4.937-9.646zM319.818 385.514v14.87h4.285l.02-4.22h.695c5.915 0 7.409-.902 7.409-5.325 0-4.425-1.515-5.325-7.286-5.325h-5.123zm4.305 7.211l.02-3.834h.675c2.292 0 3.212.082 3.212 1.907 0 1.823-.92 1.927-3.212 1.927h-.695zM348.841 400.384l-2.6-5.306c1.496-.695 1.904-2.006 1.904-4.424 0-4.22-1.248-5.12-7.21-5.12h-5.161v14.85h4.3v-4.61h.718c.491 0 .963 0 1.393-.02l1.865 4.63h4.791zm-8.768-7.925v-3.67h.719c2.316 0 3.136.061 3.136 1.845 0 1.763-.82 1.825-3.136 1.825h-.719zM358.123 400.814c4.384 0 6.534-1.986 6.534-7.845s-2.15-7.865-6.534-7.865-6.534 2.006-6.534 7.865c0 5.86 2.15 7.845 6.534 7.845zm0-3.705c-1.577 0-2.152-.8-2.152-4.14 0-3.36.575-4.16 2.152-4.16 1.559 0 2.132.8 2.132 4.16 0 3.34-.573 4.14-2.132 4.14zM378.485 389.096v-3.562H368.45v14.85h4.299v-5.286h4.712v-3.274h-4.712v-2.728h5.736zM385.963 396.822v-2.359h5.224v-3.193h-5.224v-2.174h6.248v-3.562h-10.548v14.85h10.712v-3.562h-6.412zM395.39 395.447c0 3.832 1.74 5.367 6.267 5.367 4.65 0 6.349-1.658 6.349-4.792 0-5.957-8.01-3.803-8.01-6.328 0-.72.575-1.254 1.804-1.254 1.149 0 1.866.597 1.866 1.75h4.033c0-3.53-1.658-5.106-6.063-5.106-4.3 0-5.98 1.698-5.98 4.467 0 6.676 7.928 3.952 7.928 6.655 0 .8-.738 1.251-2.091 1.251-1.086 0-2.01-.493-2.01-2.01h-4.094zM411 395.447c0 3.832 1.74 5.367 6.267 5.367 4.65 0 6.35-1.658 6.35-4.792 0-5.957-8.01-3.803-8.01-6.328 0-.72.574-1.254 1.804-1.254 1.148 0 1.865.597 1.865 1.75h4.033c0-3.53-1.658-5.106-6.062-5.106-4.301 0-5.98 1.698-5.98 4.467 0 6.676 7.927 3.952 7.927 6.655 0 .8-.737 1.251-2.09 1.251-1.086 0-2.01-.493-2.01-2.01H411zM427.286 385.534h4.3v14.85h-4.3zM441.933 400.814c4.384 0 6.533-1.986 6.533-7.845s-2.15-7.865-6.533-7.865c-4.384 0-6.534 2.006-6.534 7.865 0 5.86 2.15 7.845 6.534 7.845zm0-3.705c-1.578 0-2.153-.8-2.153-4.14 0-3.36.575-4.16 2.153-4.16 1.558 0 2.132.8 2.132 4.16 0 3.34-.574 4.14-2.132 4.14zM461.389 385.534l.102 8.847-4.79-8.847h-4.442v14.85h3.521v-8.705l4.707 8.705h4.47v-14.85h-3.568zM477.907 400.384h4.813l-5.305-14.85h-4.034l-5.45 14.85h4.466l.676-2.479h4.22l.614 2.479zm-3.973-5.692l1.35-4.999 1.23 4.999h-2.58zM489.992 396.535v-11h-4.299v14.849h9.011v-3.849h-4.712z"/></g></g></svg>