<svg xmlns="http://www.w3.org/2000/svg" xmlns:xlink="http://www.w3.org/1999/xlink" version="1.1" x="0px" y="0px" viewBox="0 0 100 100" style="enable-background:new 0 0 100 100;" xml:space="preserve"><g><path d="M9.189,12.5v74h81.122v-74H9.189z M52.245,59.269c-0.671,0.832-1.557,1.291-2.495,1.291h0   c-0.938,0-1.824-0.459-2.495-1.291L10.375,13.5h78.749L52.245,59.269z M37.794,49.121l-27.605,35.53V14.863L37.794,49.121z    M46.476,59.896c0.864,1.073,2.026,1.664,3.273,1.664c0,0,0,0,0,0c1.247,0,2.41-0.591,3.274-1.664l8.298-10.298L89.216,85.5H10.796   l27.643-35.579L46.476,59.896z M61.967,48.798l27.344-33.935v69.129L61.967,48.798z M10.189,85.441l0.076,0.059h-0.076V85.441z" stroke="#fff" stroke-width="2"></path></g></svg>
