<svg xmlns="http://www.w3.org/2000/svg" width="384.151" height="296.435" viewBox="0 0 384.15 296.44"><path d="M161.489 294.724c-.661-1.723.456-4.227 4.126-9.248 3.994-5.465 4.591-11.455 4.304-43.188l-.268-29.5-2 3.5c-1.825 3.194-2.043 5.867-2.5 30.666l-.5 27.167-3.009 4.279c-3.804 5.41-10.441 8.891-18.306 9.605-11.392 1.033-14.916-2.321-7.435-7.075 9.08-5.77 10.25-9.22 10.25-30.227v-16.649l-2.25.602c-6.1 1.631-17.579 1.751-24.609.257-14.094-2.994-21.14-9.062-28.962-24.938-5.33-10.82-9.04-15.462-17.977-22.494-6.612-5.203-5.458-8.217 3.13-8.172 8.801.047 17.481 5.828 24.608 16.39 5.602 8.3 9.605 12.023 16.06 14.934 5.77 2.601 16.357 2.742 24.322.324 5.124-1.555 6.004-2.21 7.345-5.468 3.282-7.973 4.844-10.654 8.353-14.343l3.644-3.83-3.582-.587c-10.675-1.745-20.309-3.925-27.029-6.115-16.607-5.413-31.229-15.676-39.554-27.764-4.385-6.367-2.875-6.056-22.103-4.558-20.525 1.598-56.932 7.578-65.013 10.68-.76.29-1.383.044-1.383-.55 0-3.386 43.098-10.976 72.115-12.7l11.615-.69-1.06-2.806c-.582-1.544-1.983-3.055-3.114-3.359-6.187-1.662-45.554.362-66.492 3.419-12.254 1.788-15.295 1.9-13.904.509 2.19-2.19 33.322-5.48 58.608-6.194 19.726-.558 22.211-.811 21.778-2.221-3.183-10.359-3.936-16.703-3.99-33.592-.05-16.252.17-18.672 2.26-24.914 3.082-9.2 6.162-15.114 11.172-21.452l4.147-5.246-1.567-6.892c-2.701-11.874-1.47-28.113 2.927-38.639L97.17 0l6.241.596c10.163.972 23.975 6.508 36.58 14.662l6.338 4.1 9.162-1.98c15.716-3.396 33.933-4.584 49.365-3.218 7.415.657 16.637 1.858 20.494 2.67l7.013 1.474 5.645-3.398c18.751-11.288 39.385-17.648 43.027-13.26.62.746 2.025 4.868 3.122 9.16 2.143 8.377 2.672 23.859 1.055 30.83-.85 3.664-.656 4.142 4.08 10 5.873 7.263 11.151 17.608 13.6 26.652 2.946 10.878 2.168 44.441-1.3 56.094-.422 1.415 2.186 1.663 23.292 2.21 29.811.772 59.268 4.19 59.268 6.878 0 .63-1.278.802-3.25.435-16.61-3.092-45.77-5.617-64.858-5.617-13.214 0-15.547.571-16.781 4.113l-1.007 2.887h5.288c22.144 0 83.07 9.937 79.965 13.042-.53.53-3.141.298-6.377-.567-16.893-4.514-45.02-8.648-68.501-10.066l-11.022-.665-2.897 5.378c-4.052 7.521-14.613 17.62-23.06 22.052-11.354 5.956-22.577 9.19-42.884 12.36l-3.884.606 3.456 3.68c9.23 9.828 9.998 13.412 10.561 49.302.44 28.05.58 29.827 2.628 33.48 1.19 2.12 3.915 4.839 6.055 6.04 4.81 2.697 6.196 4.896 4.429 7.026-1.766 2.127-14.95 1.388-19.86-1.114-3.967-2.02-8.61-6.088-10.337-9.054-.767-1.318-1.337-11.039-1.672-28.5-.458-23.842-.709-26.902-2.5-30.5l-1.992-4-.286 30.5c-.313 33.229.042 36.291 4.99 43.121 3.988 5.506 3.49 8.28-1.557 8.695-5.715.47-14.07-3.943-18.007-9.51-4.83-6.829-5.48-9.668-5.566-24.306-.044-7.425-.374-21.938-.735-32.25-.596-17.063-.815-18.75-2.434-18.75-1.661 0-1.804 2.143-2.158 32.25-.418 35.52-.628 36.914-6.616 43.91-5.964 6.967-20.1 11.687-21.793 7.276zm-38.583-77.186c.257-.78-.54-1.25-2.112-1.25-2.619 0-4.092 1.217-2.907 2.402 1.053 1.053 4.558.247 5.02-1.152zm10 0c.257-.78-.54-1.25-2.112-1.25-2.619 0-4.092 1.217-2.907 2.402 1.053 1.053 4.558.247 5.02-1.152zm10-1.5c-.633-1.924-4.755-2.2-4.755-.32 0 1.021.903 1.57 2.584 1.57 1.62 0 2.43-.467 2.171-1.25zm-30.25-1.758c.794-1.285-2.015-2.394-4.068-1.607-2.004.77-.9 2.615 1.563 2.615 1.035 0 2.162-.454 2.505-1.008zm-7.626-4.896c1.732-1.097.588-3.096-1.771-3.096-2.485 0-3.287 1.078-1.976 2.658 1.295 1.561 1.868 1.628 3.747.438zm-5.128-7.846c.546-1.642-2.587-2.814-3.93-1.47-.576.575-.729 1.56-.34 2.188.883 1.43 3.713.954 4.27-.718zm-4.872-6.154c1.768-1.12.569-3.096-1.879-3.096-2.447 0-3.646 1.976-1.878 3.096.758.48 1.603.873 1.878.873.275 0 1.12-.393 1.879-.873zm-4.879-7.666c0-1.042-.73-1.462-2.171-1.25-3.202.471-3.545 2.82-.412 2.82 1.68 0 2.583-.549 2.583-1.57zm-9.121-3.334c1.732-1.097.588-3.096-1.771-3.096-2.485 0-3.287 1.078-1.976 2.658 1.295 1.561 1.868 1.628 3.747.438zm146.148-7.132c34.97-4.271 49.067-18.582 49.334-50.083.068-8.004-.192-9.155-3.646-16.145-4.663-9.433-13.112-17.67-20.918-20.39-4.686-1.634-7.775-1.798-26.797-1.422-34.096.673-45.292.618-64.5-.315-20.194-.982-26.673-.2-34.855 4.208-5.989 3.226-11.884 9.777-15.912 17.683-7.425 14.571-3.264 38.254 8.775 49.955 8.369 8.133 24.417 14.335 42.492 16.42 10.806 1.246 56.053 1.308 66.027.09zm-41.75-8.937c-3.102-1.891-5.279-6.365-3.807-7.824.39-.387 1.682.476 2.87 1.918 3.516 4.267 6.065 5.154 10.041 3.493 1.885-.788 3.725-2.373 4.09-3.523.765-2.408 2.342-2.744 3.138-.67 1.364 3.555-4.681 8.582-10.309 8.575-1.54-.002-4.25-.888-6.023-1.97zm2.966-13.184c-3.482-3.483.155-9.804 4.793-8.332 2.327.738 3.672 5.138 2.26 7.393-1.262 2.018-5.42 2.571-7.053.939zm-51.29-3.23c-5.547-3.769-9.222-11.558-9.75-20.66-.616-10.655 1.57-17.78 7.178-23.387 5.447-5.446 9.822-6.455 16.05-3.7 10.169 4.498 15.237 20.777 10.958 35.202-1.168 3.938-2.915 6.737-6.357 10.182-4.374 4.377-5.131 4.75-9.657 4.75-3.527 0-5.9-.672-8.421-2.386zm13.69-8.386c5.499-4.436 7.635-17.033 4.05-23.89-6.882-13.162-20.693-7.157-20.693 8.999 0 6.62 1.23 10.223 4.751 13.914 3.1 3.25 8.522 3.695 11.891.977zm82.587 8.77c-13.302-8.11-14.387-34.75-1.863-45.746 6.779-5.952 13.914-5.148 20.477 2.308 10.896 12.378 8.05 37.223-5.044 44.036-3.832 1.993-9.749 1.733-13.57-.597zm14.02-9.747c3.513-3.683 4.75-7.292 4.75-13.855 0-12.466-8.874-20.215-16.385-14.307-5.338 4.199-7.527 11.942-5.62 19.886 2.481 10.345 11.263 14.557 17.255 8.276z" fill="#fff"/></svg>