<svg xmlns="http://www.w3.org/2000/svg" width="250" height="203.175" viewBox="0 0 250 203.175"><path d="M250 24.055c-9.197 4.08-19.083 6.837-29.458 8.077 10.588-6.348 18.722-16.4 22.552-28.377-9.912 5.878-20.888 10.147-32.57 12.446C201.167 6.234 187.836.006 173.083.006c-28.324 0-51.29 22.964-51.29 51.29 0 4.02.454 7.934 1.328 11.687-42.627-2.138-80.42-22.558-105.717-53.59C12.99 16.97 10.46 25.78 10.46 35.18c0 17.793 9.055 33.492 22.818 42.69-8.408-.267-16.317-2.574-23.232-6.415-.004.214-.004.428-.004.645 0 24.85 17.68 45.58 41.143 50.293-4.304 1.172-8.835 1.8-13.513 1.8-3.304 0-6.518-.324-9.65-.92 6.527 20.374 25.468 35.204 47.913 35.617-17.553 13.758-39.67 21.957-63.7 21.957-4.14 0-8.222-.243-12.235-.717 22.698 14.552 49.66 23.045 78.623 23.045 94.342 0 145.933-78.155 145.933-145.934 0-2.22-.05-4.434-.15-6.635 10.023-7.23 18.718-16.264 25.594-26.55" fill="#fff"/></svg>