<svg xmlns="http://www.w3.org/2000/svg" viewBox="0, 0, 247.605, 247.604"><g fill="#FFF"><path d="M17.6 123.8c0 42.037 24.427 78.37 59.858 95.58L26.796 80.578C20.903 93.785 17.6 108.402 17.6 123.8M195.5 118.444c0-13.13-4.716-22.217-8.756-29.29-5.383-8.754-10.433-16.157-10.433-24.91 0-9.76 7.404-18.85 17.836-18.85.472 0 .918.057 1.377.086-18.896-17.313-44.07-27.884-71.72-27.884-37.105 0-69.746 19.04-88.736 47.87 2.494.08 4.842.128 6.835.128 11.106 0 28.306-1.35 28.306-1.35 5.722-.335 6.398 8.075.68 8.753 0 0-5.757.672-12.156 1.008l38.674 115.042 23.245-69.705-16.544-45.337c-5.723-.336-11.14-1.008-11.14-1.008-5.724-.34-5.053-9.088.673-8.753 0 0 17.536 1.35 27.97 1.35 11.105 0 28.308-1.35 28.308-1.35 5.725-.335 6.4 8.075.677 8.753 0 0-5.76.672-12.154 1.008l38.383 114.166 10.596-35.393c4.584-14.697 8.08-25.245 8.08-34.333"/><path d="M125.668 133.09l-31.87 92.594c9.52 2.8 19.58 4.328 30.005 4.328 12.368 0 24.23-2.135 35.27-6.02-.283-.456-.546-.94-.76-1.464l-32.645-89.438zM217 72.85c.456 3.382.713 7.01.713 10.92 0 10.773-2.017 22.888-8.076 38.04L177.2 215.6c31.573-18.41 52.807-52.618 52.807-91.8 0-18.466-4.717-35.825-13.007-50.95"/><path d="M123.804 241.93C58.67 241.93 5.678 188.936 5.678 123.8 5.678 58.668 58.67 5.68 123.804 5.68c65.134 0 118.127 52.99 118.127 118.123 0 65.135-52.992 118.13-118.126 118.13m0-241.93C55.537 0 0 55.536 0 123.8c0 68.27 55.537 123.807 123.804 123.807 68.266 0 123.806-55.538 123.806-123.806C247.61 55.537 192.07 0 123.804 0"/></g></svg>