<svg xmlns="http://www.w3.org/2000/svg">
<defs>
<font id="AlannaMunro: Tofino Black: 2016" horiz-adv-x="1041"><font-face font-family="Tofino Black" font-weight="460" font-stretch="normal" units-per-em="1000" panose-1="2 0 0 0 0 0 0 0 0 0" ascent="1066" descent="-298" x-height="0" bbox="-48 -241 1041 820" underline-thickness="50" underline-position="-100" unicode-range="U+0021-007d" /><missing-glyph horiz-adv-x="699" d="M362 540 q-2 6 1 15 q2 6 5 10 q2 3 4 4 q10 1 25 -11 q16 -12 29 -25 l-4 -9 q0 -1 -1 -3 q-1 0 -2 0 q-1 0 -2 1 q-15 1 -32 5 q-17 4 -23 13 l0 0 ZM464 495 q-4 1 -7 3 q-2 3 -4 6 q-3 6 -2 12 q2 5 6 8 q5 3 11 3 q1 0 3 0 q1 0 2 -1 q8 -2 12 -8 q2 -3 2 -6 q0 -4 -1 -7 q-1 -5 -5 -8 q-5 -3 -12 -3 l-5 1 ZM582 486 q-8 -5 -27 0 q-19 4 -37 9 q-1 0 -1 0 q-1 0 -2 1 q1 3 2 7 q0 3 0 6 q1 0 3 0 q1 0 2 1 q14 5 31 8 q17 4 26 -1 q5 -4 5 -15 q1 -6 0 -11 q0 -4 -2 -5 l0 0 ZM306 239 q-4 -16 -11 -29 q-7 -13 -17 -19 q-6 -2 -20 -4 q-14 -2 -34 -2 q-11 0 -20 1 q-10 1 -18 2 q-24 6 -32 31 q-8 25 -5 48 q0 2 15 7 q15 4 51 5 q30 0 53 -4 q22 -3 32 -8 l1 0 l2 -3 q3 -4 4 -10 q1 -7 -1 -15 l0 0 ZM485 188 q-8 -1 -18 -2 q-11 -1 -22 -1 q-19 0 -33 2 q-13 2 -19 4 q-10 6 -18 19 q-8 13 -10 29 q-2 8 -2 15 q1 6 4 10 q0 0 1 1 q1 0 2 0 q0 1 0 2 q0 0 1 0 q10 5 32 8 q23 4 52 4 q37 -1 52 -5 q14 -5 15 -7 q2 -23 -6 -49 q-7 -26 -31 -30 l0 0 ZM511 465 q16 -5 31 -8 q15 -4 28 -4 q18 0 31 9 q15 14 14 41 q-1 13 -6 23 q-5 9 -13 15 q-15 11 -34 9 q-19 -2 -38 -8 q0 2 -1 3 q-19 43 -70 70 q-52 26 -118 27 q-64 -1 -114 -26 q-50 -25 -67 -66 q-8 -21 -6 -42 q3 -20 16 -40 q-37 -37 -58 -88 q-22 -51 -22 -109 q3 -115 74 -191 q71 -76 177 -79 q107 3 179 79 q71 76 74 191 q0 57 -20 107 q-21 49 -57 87 l0 0 ZM241 439 q-6 11 -6 24 q0 14 12 28 q21 10 43 14 q22 5 45 5 q7 0 16 -1 q12 -8 29 -12 q17 -4 33 -6 q4 -1 7 -1 q3 0 6 -1 l1 0 q4 -8 11 -14 q8 -6 17 -9 q2 -1 5 -1 q3 0 5 0 q31 -24 53 -58 q21 -33 32 -74 q-140 -4 -216 32 q-75 35 -93 74 l0 0 ZM182 539 q14 31 57 51 q42 20 96 21 q41 0 81 -14 q41 -15 65 -42 q-3 1 -6 2 q-4 1 -7 1 q-5 0 -9 -1 q-5 -1 -10 -3 q0 1 -3 2 q-20 20 -40 33 q-21 13 -40 
<glyph glyph-name="" unicode="!" d="M73 202 l168 0 l16 523 l-199 0 l15 -523 ZM58 0 l199 0 l0 156 l-199 0 l0 -156 Z" /><glyph glyph-name="" unicode="&quot;" d="M50 464 l159 0 l25 287 l-210 0 l26 -287 ZM305 464 l159 0 l25 287 l-210 0 l26 -287 Z" /><glyph glyph-name="" unicode="#" d="M746 422 l0 141 l-90 0 l28 139 l-161 0 l-28 -139 l-79 0 l28 139 l-161 0 l-28 -139 l-119 0 l0 -141 l91 0 l-24 -119 l-114 0 l0 -141 l86 0 l-32 -162 l161 0 l32 162 l79 0 l-32 -162 l161 0 l32 162 l123 0 l0 141 l-95 0 l24 119 l118 0 ZM443 303 l-79 0 l24 119 l79 0 l-24 -119 Z" /><glyph glyph-name="" unicode="$" d="M560 241 q-20 176 -161 191 q-142 15 -162 75 q0 24 16 38 q15 13 48 13 q29 0 47 -17 q18 -18 18 -55 l182 0 q1 102 -45 156 q-45 53 -153 62 l8 58 l-127 0 l8 -59 q-104 -10 -151 -60 q-48 -49 -48 -130 q21 -195 161 -204 q140 -9 160 -76 q0 -25 -19 -38 q-20 -12 -55 -12 q-28 -1 -49 17 q-21 18 -22 66 l-184 0 q-2 -111 46 -166 q47 -55 162 -63 l-9 -62 l127 0 l-9 62 q113 10 163 62 q49 51 48 142 l0 0 Z" /><glyph glyph-name="" unicode="%" d="M216 345 q106 0 149 48 q43 48 42 139 q1 93 -42 142 q-43 49 -149 49 q-105 0 -149 -49 q-44 -49 -43 -142 q-1 -91 43 -139 q44 -48 149 -48 l0 0 ZM216 451 q-32 0 -45 20 q-12 19 -12 61 q0 43 12 64 q13 21 45 21 q32 0 45 -21 q12 -21 11 -64 q1 -42 -11 -61 q-13 -20 -45 -20 l0 0 ZM154 0 l179 0 l460 702 l-179 0 l-460 -702 ZM727 -22 q106 0 149 48 q43 48 42 139 q1 93 -42 142 q-43 49 -149 49 q-105 0 -149 -49 q-43 -49 -42 -142 q-1 -91 42 -139 q44 -48 149 -48 l0 0 ZM727 84 q-32 0 -45 20 q-12 19 -12 61 q0 43 12 64 q13 21 45 21 q33 0 45 -21 q13 -21 12 -64 q1 -42 -12 -61 q-12 -20 -45 -20 l0 0 Z" /><glyph glyph-name="" unicode="&amp;" d="M798 -6 q-1 1 -47 45 q-45 44 -116 114 q28 51 42 115 q15 64 15 139 l-158 0 q0 -38 -5 -72 q-5 -33 -14 -62 l-10 11 q-75 75 -125 136 q-51 61 -53 116 q-1 18 11 36 q11 17 43 18 q32 -1 44 -23 q11 -23 10 -60 l190 0 q2 107 -53 171 q-55 63 -191 65 q-128 -1 -188 -52 q-61 -51 -60 -143 q0 -37 10 -70 q10 -32 29 -63 q-42 -22 -77 -71 q-36 -48 -38 -132 q0 -113 64 -173 q65 -59 199 -60 q60 0 111 14 q51 14 92 40 q19 -19 29 -29 q11 -10 11 -10 l235 0 ZM241 222 q0 21 8 38 q8 18 20 32 l38 -41 q27 -29 54 -56 q26 -28 52 -54 q-30 -14 -64 -14 q-62 2 -85 30 q-24 29 -23 65 l0 0 Z" /><glyph glyph-name="" unicode="&#39;" d="M46 464 l158 0 l26 287 l-210 0 l26 -287 Z" /><glyph glyph-name="" unicode="(" d="M178 760 q-6 -2 -52 -128 q-45 -126 -52 -349 q8 -223 62 -349 q54 -126 62 -128 l188 0 q-8 3 -62 132 q-54 129 -62 345 q7 216 52 345 q46 129 52 132 l-188 0 Z" /><glyph glyph-name="" unicode=")" d="M50 760 q7 -3 52 -132 q46 -129 52 -345 q-8 -216 -62 -345 q-54 -129 -62 -132 l188 0 q8 2 62 128 q54 126 62 349 q-6 223 -52 349 q-45 126 -52 128 l-188 0 Z" /><glyph glyph-name="" unicode="*" d="M61 536 l112 -15 l-87 -84 l116 -83 l55 94 l54 -94 l116 83 l-87 84 l112 15 l-36 132 l-103 -44 l9 104 l-132 0 l10 -104 l-103 44 l-36 -132 Z" /><glyph glyph-name="" unicode="+" d="M488 400 l-150 0 l0 158 l-145 0 l0 -158 l-150 0 l0 -130 l150 0 l0 -157 l145 0 l0 157 l150 0 l0 130 Z" /><glyph glyph-name="" unicode="," d="M180 -153 q1 -1 24 35 q22 35 48 118 q22 75 28 115 q6 40 5 40 l-185 0 q1 1 -2 -31 q-2 -32 -16 -108 q-15 -74 -31 -121 q-16 -47 -17 -48 l146 0 Z" /><glyph glyph-name="" unicode="-" d="M78 242 l274 0 l0 151 l-274 0 l0 -151 Z" /><glyph glyph-name="" unicode="." d="M71 0 l200 0 l0 155 l-200 0 l0 -155 Z" /><glyph glyph-name="" unicode="/" d="M37 -40 l182 0 l310 840 l-182 0 l-310 -840 Z" /><glyph glyph-name="" unicode="0" d="M345 -15 q179 0 244 91 q65 91 61 270 q4 193 -61 288 q-65 94 -244 94 q-178 0 -243 -94 q-65 -95 -61 -288 q-4 -179 61 -270 q65 -91 243 -91 l0 0 ZM345 166 q-54 -1 -72 41 q-19 42 -18 139 q-1 111 18 157 q18 46 72 44 q54 2 73 -44 q18 -46 17 -157 q1 -97 -17 -139 q-19 -42 -73 -41 l0 0 Z" /><glyph glyph-name="" unicode="1" d="M196 718 l-193 -80 l0 -159 l122 52 l0 -531 l211 0 l0 718 l-140 0 Z" /><glyph glyph-name="" unicode="2" d="M33 0 l550 0 l0 173 l-245 -13 q6 3 40 25 q34 22 76 58 q46 36 92 98 q45 62 49 149 q3 104 -59 171 q-61 66 -220 68 q-161 -1 -226 -73 q-65 -73 -63 -203 l215 0 q0 48 17 74 q18 26 57 26 q38 -1 55 -22 q16 -22 16 -54 q-3 -50 -52 -94 q-48 -44 -104 -84 q-67 -50 -130 -92 q-63 -42 -68 -45 l0 -162 Z" /><glyph glyph-name="" unicode="3" d="M577 554 l0 151 l-537 0 l0 -173 l276 11 l-135 -93 l0 -130 q2 1 30 4 q27 4 56 4 q66 -1 88 -28 q22 -26 20 -64 q1 -30 -16 -53 q-17 -24 -60 -25 q-44 2 -59 29 q-16 27 -15 56 l-208 0 q-2 -110 62 -182 q64 -71 223 -74 q160 3 225 70 q65 68 63 167 q1 84 -35 138 q-35 53 -120 77 l142 115 Z" /><glyph glyph-name="" unicode="4" d="M650 265 l-79 0 l0 440 l-223 0 l-326 -440 l0 -159 l339 0 l0 -106 l210 0 l0 106 l79 0 l0 159 ZM206 265 l157 214 l-1 -214 l-156 0 Z" /><glyph glyph-name="" unicode="5" d="M382 470 q-40 0 -71 -9 q-30 -10 -50 -22 l15 107 l292 -7 l0 166 l-464 0 l-22 -154 l-36 -271 l191 -2 q-1 3 17 23 q18 19 64 22 q46 -2 63 -30 q17 -29 16 -63 q1 -33 -16 -58 q-17 -25 -63 -26 q-44 3 -60 26 q-16 23 -15 33 l-209 0 q-3 -83 60 -149 q63 -65 224 -69 q163 3 228 71 q65 68 62 172 q2 100 -50 168 q-51 69 -176 72 l0 0 Z" /><glyph glyph-name="" unicode="6" d="M390 460 q-40 0 -71 -9 q-32 -9 -57 -24 q7 86 28 115 q20 29 54 27 q39 -2 55 -22 q17 -20 16 -39 l204 0 q3 83 -56 150 q-59 66 -219 70 q-166 3 -235 -91 q-70 -94 -68 -318 q-3 -165 64 -250 q67 -84 239 -84 q171 4 235 76 q63 71 60 165 q3 91 -49 161 q-52 69 -200 73 l0 0 ZM344 145 q-43 -1 -64 32 q-20 33 -23 108 q15 15 38 24 q22 10 53 10 q40 -1 58 -24 q18 -24 18 -63 q0 -35 -19 -60 q-19 -26 -61 -27 l0 0 Z" /><glyph glyph-name="" unicode="7" d="M324 0 q13 201 105 363 q91 162 104 171 l0 171 l-532 0 l0 -171 l308 6 q-14 -7 -108 -162 q-95 -156 -109 -378 l232 0 Z" /><glyph glyph-name="" unicode="8" d="M37 208 q-3 -103 62 -161 q65 -58 237 -59 q172 1 237 59 q65 58 62 161 q-5 90 -49 134 q-44 44 -68 46 q17 2 53 35 q37 33 41 105 q3 89 -58 144 q-61 55 -218 57 q-157 -2 -218 -57 q-61 -55 -58 -144 q4 -72 41 -105 q36 -33 53 -35 q-24 -2 -68 -46 q-44 -44 -49 -134 l0 0 ZM254 230 q-1 37 17 63 q19 25 65 26 q46 -1 65 -26 q18 -26 17 -63 q1 -37 -17 -61 q-19 -25 -65 -26 q-46 1 -65 26 q-18 24 -17 61 l0 0 ZM265 509 q0 38 16 58 q16 21 55 21 q38 0 55 -21 q16 -20 16 -58 q0 -31 -16 -50 q-17 -19 -55 -20 q-39 1 -55 20 q-16 19 -16 50 l0 0 Z" /><glyph glyph-name="" unicode="9" d="M336 728 q-168 -4 -233 -77 q-65 -72 -62 -168 q-3 -103 51 -172 q53 -69 198 -72 q39 0 71 9 q32 9 57 24 q-8 -78 -28 -104 q-20 -26 -57 -24 q-49 2 -66 22 q-17 20 -16 39 l-203 0 q-4 -81 54 -148 q58 -68 231 -72 q175 -3 242 91 q67 94 64 318 q3 165 -66 250 q-68 84 -237 84 l0 0 ZM256 477 q0 38 18 64 q19 26 62 27 q44 1 65 -35 q21 -36 23 -118 q-16 -15 -38 -25 q-23 -10 -54 -10 q-39 0 -57 26 q-19 25 -19 71 l0 0 Z" /><glyph glyph-name="" unicode=":" d="M71 384 l200 0 l0 155 l-200 0 l0 -155 ZM71 18 l200 0 l0 161 l-200 0 l0 -161 Z" /><glyph glyph-name="" unicode=";" d="M83 366 l200 0 l0 153 l-200 0 l0 -153 ZM167 -153 q1 -1 24 35 q22 35 48 118 q22 75 28 115 q6 40 5 40 l-184 0 q1 1 -2 -31 q-3 -32 -17 -108 q-15 -74 -31 -121 q-16 -47 -17 -48 l146 0 Z" /><glyph glyph-name="" unicode="&lt;" d="M502 547 l-458 -138 l0 -159 l458 -138 l0 153 l-307 65 l307 64 l0 153 Z" /><glyph glyph-name="" unicode="=" d="M63 347 l470 0 l0 132 l-470 0 l0 -132 ZM63 151 l470 0 l0 132 l-470 0 l0 -132 Z" /><glyph glyph-name="" unicode="&gt;" d="M68 547 l0 -153 l307 -64 l-307 -65 l0 -153 l458 138 l0 159 l-458 138 Z" /><glyph glyph-name="" unicode="?" d="M387 190 l1 16 q19 91 91 140 q72 49 82 189 q3 94 -55 157 q-59 64 -209 66 q-144 -1 -203 -74 q-60 -73 -58 -209 l197 0 q-1 58 12 87 q13 29 51 29 q37 -1 50 -23 q13 -21 12 -53 q-10 -82 -76 -133 q-67 -50 -77 -176 l0 -16 l182 0 ZM196 0 l200 0 l0 146 l-200 0 l0 -146 Z" /><glyph glyph-name="" unicode="@" d="M869 283 q2 186 -96 302 q-98 116 -320 119 q-218 -4 -316 -121 q-98 -117 -96 -300 q-2 -191 94 -307 q97 -117 318 -120 q73 0 124 8 q51 7 85 20 l0 108 q-36 -16 -95 -24 q-60 -8 -113 -8 q-176 4 -237 98 q-62 93 -58 225 q-2 144 67 229 q68 86 227 88 q165 -2 234 -86 q70 -84 68 -231 q-1 -107 -14 -137 q-14 -31 -34 -27 q-21 0 -33 21 q-12 20 -12 65 l0 308 l-128 0 l-12 -44 q-19 18 -48 31 q-29 13 -68 14 q-92 -1 -135 -61 q-43 -61 -42 -176 q-1 -115 42 -176 q43 -61 135 -61 q49 0 82 13 q33 13 53 34 q18 -30 52 -49 q34 -18 88 -19 l1 0 q102 0 145 68 q43 67 42 196 l0 0 ZM443 159 q-30 0 -47 30 q-17 30 -17 88 q0 58 17 87 q17 30 47 30 q27 -1 44 -11 q17 -11 27 -26 l0 -164 q-7 -15 -24 -24 q-17 -10 -47 -10 l0 0 Z" /><glyph glyph-name="" unicode="a" d="M487 0 l235 0 l-259 725 l-197 0 l-266 -725 l218 0 l33 121 l206 0 l30 -121 ZM293 278 l66 244 l60 -244 l-126 0 Z" /><glyph glyph-name="" unicode="b" d="M542 375 q55 23 76 62 q21 39 20 94 q5 101 -61 148 q-66 47 -262 47 l-250 0 l0 -727 l242 0 q233 -1 301 49 q67 49 60 156 q2 61 -23 104 q-26 44 -103 67 l0 0 ZM309 576 q78 1 105 -14 q28 -15 26 -55 q2 -39 -26 -54 q-27 -15 -105 -14 l-34 0 l0 137 l34 0 ZM275 149 l0 156 l34 0 q92 1 123 -16 q31 -18 29 -64 q2 -44 -29 -60 q-31 -17 -123 -16 l-34 0 Z" /><glyph glyph-name="" unicode="c" d="M356 -21 q143 -2 221 69 q77 71 79 245 l-207 0 q-4 -80 -27 -107 q-23 -28 -66 -26 q-54 -3 -77 40 q-24 42 -24 162 q0 121 24 163 q23 43 77 40 q43 2 66 -25 q23 -26 27 -102 l207 0 q-2 171 -80 241 q-79 69 -220 67 q-157 3 -236 -85 q-79 -87 -79 -299 q0 -212 79 -299 q79 -87 236 -84 l0 0 Z" /><glyph glyph-name="" unicode="d" d="M65 726 l0 -727 l234 0 q235 -3 310 79 q76 82 69 284 q7 202 -69 284 q-75 83 -310 80 l-234 0 ZM275 553 q109 5 151 -25 q41 -30 39 -166 q2 -131 -39 -163 q-42 -33 -151 -28 l0 382 Z" /><glyph glyph-name="" unicode="e" d="M275 174 l0 115 l255 0 l0 156 l-255 0 l0 106 l305 0 l0 174 l-515 0 l0 -725 l523 0 l0 174 l-313 0 Z" /><glyph glyph-name="" unicode="f" d="M555 551 l0 174 l-490 0 l0 -725 l210 0 l0 258 l230 0 l0 160 l-230 0 l0 133 l280 0 Z" /><glyph glyph-name="" unicode="g" d="M655 382 l-287 0 l0 -136 l106 0 l0 -55 q1 -16 -24 -29 q-26 -13 -76 -14 q-65 -3 -92 41 q-28 45 -27 173 q0 125 24 168 q24 44 79 41 q45 1 69 -24 q24 -25 27 -89 l200 0 q1 150 -71 219 q-72 70 -225 69 q-159 3 -238 -84 q-79 -86 -79 -300 q0 -214 79 -300 q79 -87 238 -83 q156 6 227 53 q71 47 70 69 l0 281 Z" /><glyph glyph-name="" unicode="h" d="M458 725 l0 -261 l-183 0 l0 261 l-210 0 l0 -725 l210 0 l0 273 l183 0 l0 -273 l211 0 l0 725 l-211 0 Z" /><glyph glyph-name="" unicode="i" d="M65 0 l210 0 l0 725 l-210 0 l0 -725 Z" /><glyph glyph-name="" unicode="j" d="M85 0 q219 -3 278 76 q60 78 52 269 l-2 380 l-210 0 l1 -380 q1 -105 -24 -136 q-26 -30 -95 -27 l-71 0 l0 -182 l71 0 Z" /><glyph glyph-name="" unicode="k" d="M486 0 l243 0 l-270 402 l259 323 l-233 0 l-210 -308 l0 308 l-210 0 l0 -725 l210 0 l0 172 l60 75 l151 -247 Z" /><glyph glyph-name="" unicode="l" d="M275 188 l0 537 l-210 0 l0 -725 l440 0 l0 188 l-230 0 Z" /><glyph glyph-name="" unicode="m" d="M873 725 l-252 0 l-151 -482 l-146 482 l-259 0 l0 -725 l168 0 l-6 437 l137 -439 l181 0 l152 452 l-7 -450 l181 0 l2 725 Z" /><glyph glyph-name="" unicode="n" d="M511 725 l5 -432 l-234 432 l-217 0 l0 -725 l172 0 l0 425 l230 -425 l218 0 l0 725 l-174 0 Z" /><glyph glyph-name="" unicode="o" d="M360 -21 q160 -3 240 84 q79 87 79 299 q0 212 -79 299 q-80 88 -240 85 q-160 3 -240 -85 q-79 -87 -79 -299 q0 -212 79 -299 q80 -87 240 -84 l0 0 ZM360 160 q-57 -3 -81 40 q-25 42 -24 162 q-1 120 24 163 q24 43 81 40 q56 3 81 -40 q24 -43 23 -163 q1 -120 -23 -162 q-25 -43 -81 -40 l0 0 Z" /><glyph glyph-name="" unicode="p" d="M65 726 l0 -726 l209 0 l1 206 l34 0 q212 -4 289 49 q77 53 73 211 q4 158 -72 211 q-77 53 -284 49 l-250 0 ZM275 374 l1 187 l33 0 q83 3 121 -13 q37 -16 36 -80 q1 -64 -36 -80 q-38 -16 -121 -14 l-34 0 Z" /><glyph glyph-name="" unicode="q" d="M700 -55 l-122 97 q50 42 76 121 q25 78 25 199 q0 212 -79 299 q-80 88 -240 85 q-160 3 -240 -85 q-79 -87 -79 -299 q0 -212 79 -299 q80 -87 240 -84 q40 0 76 5 l164 -153 l100 114 ZM255 362 q-1 120 24 163 q24 43 81 40 q56 3 81 -40 q24 -43 23 -163 q1 -120 -23 -162 q-25 -43 -81 -40 q-57 -3 -81 40 q-25 42 -24 162 l0 0 Z" /><glyph glyph-name="" unicode="r" d="M703 0 l-127 259 q54 25 74 77 q20 51 19 139 q5 151 -67 202 q-72 52 -285 48 l-252 0 l0 -725 l210 0 l0 225 l35 0 q36 0 68 1 l91 -226 l234 0 ZM275 387 l0 179 l35 0 q84 3 119 -12 q35 -15 34 -78 q1 -62 -34 -77 q-35 -14 -119 -12 l-35 0 Z" /><glyph glyph-name="" unicode="s" d="M32 241 q-2 -139 70 -201 q72 -62 236 -61 q168 0 240 60 q72 59 70 174 q-24 199 -195 218 q-172 18 -196 91 q0 27 22 44 q21 16 66 17 q42 0 67 -21 q24 -22 24 -64 l197 0 q2 128 -67 189 q-69 61 -229 60 q-156 -1 -225 -58 q-68 -58 -67 -160 q24 -222 194 -235 q169 -14 193 -90 q0 -29 -26 -45 q-26 -16 -76 -16 q-41 -1 -69 21 q-28 22 -29 77 l-200 0 Z" /><glyph glyph-name="" unicode="t" d="M569 725 l-558 0 l0 -188 l174 0 l-1 -537 l210 0 l1 537 l174 0 l0 188 Z" /><glyph glyph-name="" unicode="u" d="M366 -21 q175 -2 239 83 q64 85 60 275 l0 388 l-213 0 l0 -376 q0 -114 -20 -150 q-20 -36 -67 -33 q-46 -3 -67 33 q-21 36 -21 150 l0 376 l-210 0 l0 -388 q-3 -190 61 -275 q64 -85 238 -83 l0 0 Z" /><glyph glyph-name="" unicode="v" d="M478 725 l-119 -471 l-119 471 l-240 0 l260 -725 l180 0 l262 725 l-224 0 Z" /><glyph glyph-name="" unicode="w" d="M826 725 l-96 -472 l-111 472 l-188 0 l-105 -464 l-94 464 l-232 0 l226 -725 l180 0 l112 424 l110 -424 l185 0 l228 725 l-215 0 Z" /><glyph glyph-name="" unicode="x" d="M744 0 l-247 362 l231 363 l-223 0 l-124 -193 l-132 193 l-246 0 l243 -357 l-241 -368 l223 0 l132 202 l137 -202 l247 0 Z" /><glyph glyph-name="" unicode="y" d="M694 725 l-218 0 l-117 -300 l-121 300 l-238 0 l243 -470 l0 -255 l210 0 l0 254 l241 471 Z" /><glyph glyph-name="" unicode="z" d="M241 175 l349 331 l0 218 l-548 0 l0 -181 l329 7 l-347 -331 l0 -218 l569 0 l0 181 l-352 -7 Z" /><glyph glyph-name="" unicode="[" d="M456 601 l0 159 l-356 0 l0 -960 l356 0 l0 159 l-173 0 l0 642 l173 0 Z" /><glyph glyph-name="" unicode="\" d="M529 -40 l-310 840 l-182 0 l310 -840 l182 0 Z" /><glyph glyph-name="" unicode="]" d="M386 760 l-356 0 l0 -159 l174 0 l0 -642 l-174 0 l0 -159 l356 0 l0 960 Z" /><glyph glyph-name="" unicode="^" d="M451 455 l-131 298 l-135 0 l-131 -298 l143 0 l56 143 l55 -143 l143 0 Z" /><glyph glyph-name="" unicode="_" d="M82 0 l439 0 l0 145 l-439 0 l0 -145 Z" /><glyph glyph-name="" unicode="`" d="M342 612 l-96 184 l-193 0 l124 -184 l165 0 Z" /><glyph glyph-name="" unicode="a" d="M574 0 l-7 154 l0 118 q8 134 -35 211 q-43 77 -238 79 q-165 -6 -206 -71 q-40 -66 -34 -120 l178 0 q0 25 17 43 q17 17 54 18 q44 0 55 -24 q11 -25 9 -79 q-166 5 -252 -22 q-87 -27 -88 -143 q-1 -93 47 -136 q48 -43 163 -42 q61 0 99 18 q37 18 56 49 l16 -53 l166 0 ZM288 104 q-29 0 -45 16 q-16 15 -16 42 q0 44 35 57 q35 13 105 12 l0 -85 q-13 -26 -35 -34 q-22 -9 -44 -8 l0 0 Z" /><glyph glyph-name="" unicode="b" d="M405 563 q-53 -1 -90 -20 q-36 -19 -57 -41 l0 258 l-200 0 l0 -598 l-5 -162 l165 0 l17 64 q24 -33 66 -55 q41 -21 104 -22 q117 0 168 71 q51 71 50 216 q1 144 -50 217 q-51 72 -168 72 l0 0 ZM346 135 q-38 1 -59 17 q-20 17 -29 40 l0 163 q9 21 29 40 q21 18 59 19 q38 1 55 -32 q17 -34 17 -108 q0 -74 -17 -107 q-17 -33 -55 -32 l0 0 Z" /><glyph glyph-name="" unicode="c" d="M319 -18 q143 0 205 57 q61 57 66 170 l-197 0 q-3 -42 -22 -60 q-20 -18 -52 -17 q-43 -1 -62 30 q-18 31 -18 113 q0 82 18 113 q19 31 62 30 q34 1 53 -19 q19 -21 22 -71 l196 0 q-4 119 -64 179 q-61 60 -207 60 q-162 0 -224 -74 q-63 -73 -60 -218 q-3 -145 60 -219 q62 -74 224 -74 l0 0 Z" /><glyph glyph-name="" unicode="d" d="M605 0 l-5 162 l0 598 l-200 0 l0 -252 q-21 20 -57 37 q-37 17 -90 18 q-117 0 -168 -72 q-51 -73 -50 -217 q-1 -145 50 -216 q51 -71 168 -71 q63 1 105 22 q41 22 65 55 l17 -64 l165 0 ZM312 135 q-39 -1 -55 32 q-17 33 -17 107 q0 74 17 108 q16 33 55 32 q38 -1 59 -19 q20 -19 29 -40 l0 -163 q-8 -23 -29 -40 q-20 -16 -59 -17 l0 0 Z" /><glyph glyph-name="" unicode="e" d="M319 117 q-39 -1 -57 25 q-19 26 -22 96 l362 0 q2 176 -63 254 q-64 78 -220 76 q-162 0 -224 -75 q-63 -74 -60 -219 q-3 -145 60 -218 q62 -74 224 -74 q155 2 219 60 q64 57 62 143 l-202 0 q-2 -30 -20 -49 q-18 -18 -59 -19 l0 0 ZM319 440 q33 1 51 -20 q19 -22 26 -83 l-155 0 q5 60 24 82 q18 22 54 21 l0 0 Z" /><glyph glyph-name="" unicode="f" d="M381 521 l-104 0 l0 10 q0 46 17 64 q16 18 48 17 l36 0 l0 155 l-91 0 q-125 -4 -168 -67 q-44 -64 -41 -146 l0 -33 l-74 0 l0 -139 l74 0 l0 -382 l199 0 l0 382 l104 0 l0 139 Z" /><glyph glyph-name="" unicode="g" d="M601 383 l5 167 l-166 0 l-18 -73 q-13 22 -55 52 q-42 31 -114 34 q-117 0 -168 -72 q-51 -73 -50 -217 q-1 -143 50 -214 q51 -70 168 -70 q51 0 87 14 q36 14 61 38 l0 -47 q2 -52 -11 -79 q-13 -28 -68 -28 q-56 2 -68 24 q-11 21 -9 37 l-183 0 q-10 -12 25 -95 q35 -83 231 -95 q211 7 252 86 q41 79 31 152 l0 386 ZM312 137 q-39 -1 -55 32 q-17 33 -17 105 q0 74 17 108 q16 33 55 32 q39 -1 60 -20 q20 -20 29 -42 l0 -157 q-8 -23 -29 -40 q-21 -17 -60 -18 l0 0 Z" /><glyph glyph-name="" unicode="h" d="M420 565 q-64 -2 -105 -23 q-41 -21 -62 -44 l0 262 l-200 0 l0 -760 l200 0 l0 329 q8 21 30 44 q22 23 64 25 q38 -1 49 -26 q10 -25 9 -62 l-2 -310 l199 0 l3 330 q1 130 -43 184 q-43 53 -142 51 l0 0 Z" /><glyph glyph-name="" unicode="i" d="M52 611 l200 0 l0 161 l-200 0 l0 -161 ZM50 0 l200 0 l0 550 l-200 0 l0 -550 Z" /><glyph glyph-name="" unicode="j" d="M66 611 l200 0 l0 161 l-200 0 l0 -161 ZM-48 -234 q216 1 270 83 q53 82 45 232 l0 469 l-199 0 l0 -469 q3 -77 -15 -112 q-19 -35 -101 -34 l0 -169 Z" /><glyph glyph-name="" unicode="k" d="M406 0 l221 0 l-221 315 l202 235 l-223 0 l-127 -189 l0 399 l-200 0 l0 -760 l200 0 l0 142 l36 41 l112 -183 Z" /><glyph glyph-name="" unicode="l" d="M58 0 l199 0 l0 760 l-199 0 l0 -760 Z" /><glyph glyph-name="" unicode="m" d="M737 565 q-73 -2 -116 -30 q-44 -28 -60 -52 q-18 44 -54 63 q-36 19 -91 19 q-78 -3 -122 -34 q-44 -30 -58 -52 l-18 71 l-165 0 l5 -153 l0 -397 l200 0 l0 342 q10 20 30 37 q21 18 55 19 q39 -1 48 -26 q9 -25 7 -62 l-1 -310 l184 0 l2 330 l0 17 q10 19 31 35 q20 15 52 16 q37 -1 46 -26 q9 -25 7 -62 l-1 -310 l191 0 l2 330 q0 130 -42 184 q-42 53 -132 51 l0 0 Z" /><glyph glyph-name="" unicode="n" d="M420 565 q-81 -3 -125 -34 q-45 -30 -58 -52 l-19 71 l-165 0 l5 -153 l0 -397 l200 0 l0 340 q10 20 31 38 q22 19 58 20 q38 -1 49 -26 q10 -25 9 -62 l-2 -310 l199 0 l3 330 q1 130 -43 184 q-43 53 -142 51 l0 0 Z" /><glyph glyph-name="" unicode="o" d="M322 -18 q159 1 224 77 q64 76 62 216 q2 140 -62 216 q-65 76 -224 77 q-160 -1 -224 -77 q-65 -76 -63 -216 q-2 -140 63 -216 q64 -76 224 -77 l0 0 ZM321 132 q-44 -2 -63 30 q-19 31 -19 113 q0 81 19 113 q19 31 63 30 q45 1 64 -30 q20 -32 19 -113 q1 -82 -19 -113 q-19 -32 -64 -30 l0 0 Z" /><glyph glyph-name="" unicode="p" d="M405 563 q-71 -3 -113 -33 q-42 -30 -55 -52 l-19 72 l-165 0 l5 -165 l0 -625 l200 0 l0 279 q25 -24 61 -38 q36 -14 86 -14 q117 0 168 71 q51 71 50 216 q1 144 -50 217 q-51 72 -168 72 l0 0 ZM346 135 q-38 1 -59 17 q-20 17 -29 40 l0 163 q9 21 29 40 q21 18 59 19 q38 1 55 -32 q17 -34 17 -108 q0 -74 -17 -107 q-17 -33 -55 -32 l0 0 Z" /><glyph glyph-name="" unicode="q" d="M440 550 l-19 -72 q-14 22 -56 52 q-42 30 -112 33 q-117 0 -168 -72 q-51 -73 -50 -217 q-1 -145 50 -216 q51 -71 168 -71 q50 0 86 14 q36 14 61 38 l0 -279 l200 0 l0 627 l6 163 l-166 0 ZM312 135 q-39 -1 -55 32 q-17 33 -17 107 q0 74 17 108 q16 33 55 32 q38 -1 59 -19 q20 -19 29 -40 l0 -163 q-8 -23 -29 -40 q-20 -16 -59 -17 l0 0 Z" /><glyph glyph-name="" unicode="r" d="M219 550 l-166 0 l5 -166 l0 -384 l200 0 l0 269 q3 28 40 72 q36 43 136 48 l0 178 q-97 -3 -140 -39 q-44 -36 -54 -69 l-21 91 Z" /><glyph glyph-name="" unicode="s" d="M32 187 q-1 -104 58 -155 q60 -50 197 -50 q141 1 203 47 q62 47 61 134 q-20 161 -161 169 q-141 8 -161 67 q0 18 14 30 q14 12 48 12 q36 0 54 -14 q17 -15 17 -47 l177 0 q1 92 -58 140 q-60 47 -195 47 q-128 -1 -189 -45 q-61 -45 -61 -124 q21 -164 161 -174 q140 -11 160 -74 q0 -22 -20 -32 q-19 -10 -52 -10 q-30 -1 -52 16 q-22 16 -23 63 l-178 0 Z" /><glyph glyph-name="" unicode="t" d="M349 150 q-32 -2 -48 20 q-17 21 -17 84 l0 156 l109 0 l0 140 l-109 0 l0 171 l-199 -31 l0 -140 l-73 0 l0 -140 l73 0 l0 -161 q-6 -119 39 -188 q44 -70 205 -72 l69 0 l0 161 l-49 0 Z" /><glyph glyph-name="" unicode="u" d="M602 0 l-6 153 l0 397 l-200 0 l0 -342 q-10 -20 -31 -38 q-21 -18 -57 -19 q-38 1 -48 27 q-10 25 -9 62 l2 310 l-199 0 l-3 -335 q-1 -127 44 -180 q44 -53 140 -51 q80 3 125 34 q45 31 58 54 l19 -72 l165 0 Z" /><glyph glyph-name="" unicode="v" d="M401 550 l-88 -342 l-94 342 l-217 0 l205 -550 l190 0 l203 550 l-199 0 Z" /><glyph glyph-name="" unicode="w" d="M682 550 l-72 -325 l-88 325 l-173 0 l-83 -324 l-73 324 l-193 0 l166 -550 l172 0 l88 304 l93 -304 l172 0 l165 550 l-174 0 Z" /><glyph glyph-name="" unicode="x" d="M597 550 l-196 0 l-86 -138 l-92 138 l-220 0 l178 -267 l-181 -283 l196 0 l85 134 l90 -134 l220 0 l-175 262 l181 288 Z" /><glyph glyph-name="" unicode="y" d="M397 550 l-103 -352 l-86 352 l-206 0 l184 -550 l51 0 l-68 -232 l173 0 l249 782 l-194 0 Z" /><glyph glyph-name="" unicode="z" d="M45 549 l0 -149 l258 7 l-268 -217 l0 -189 l475 0 l0 151 l-266 -7 l266 217 l0 187 l-465 0 Z" /><glyph glyph-name="" unicode="{" d="M469 759 q-201 4 -263 -37 q-63 -42 -57 -182 l0 -135 q2 -30 -15 -42 q-17 -13 -72 -13 l0 -142 q55 0 72 -13 q17 -13 15 -43 l0 -125 q-6 -141 57 -187 q62 -47 263 -43 l0 154 q-74 -3 -101 20 q-28 22 -26 100 l0 87 q-5 64 -39 92 q-34 27 -42 28 q10 1 43 29 q33 28 37 92 l1 81 q-2 83 26 106 q27 23 101 20 l0 153 Z" /><glyph glyph-name="" unicode="|" d="M58 -200 l147 0 l0 1020 l-147 0 l0 -1020 Z" /><glyph glyph-name="" unicode="}" d="M30 -203 q200 -4 263 38 q63 42 57 182 l0 135 q-2 30 15 43 q17 12 72 12 l0 142 q-55 0 -72 13 q-17 13 -15 43 l0 125 q6 141 -57 187 q-63 46 -263 42 l0 -153 q74 3 101 -19 q27 -23 25 -101 l0 -87 q5 -65 39 -93 q34 -28 42 -28 q-9 -1 -42 -29 q-32 -28 -37 -91 l-1 -82 q1 -82 -26 -105 q-27 -23 -101 -20 l0 -154 Z" /></font>
</defs>
</svg>
