<?xml version="1.0" encoding="UTF-8" standalone="no"?><!DOCTYPE svg PUBLIC "-//W3C//DTD SVG 1.1//EN" "http://www.w3.org/Graphics/SVG/1.1/DTD/svg11.dtd"><svg viewBox="0 0 500 404" version="1.1" xmlns="http://www.w3.org/2000/svg" xmlns:xlink="http://www.w3.org/1999/xlink" xml:space="preserve" xmlns:serif="http://www.serif.com/" style="fill-rule:evenodd;clip-rule:evenodd;stroke-linejoin:round;stroke-miterlimit:1.41421;"><g><g transform="matrix(1.46331,0,0,1.46331,-99.6009,23.5351)"><path d="M71.629,-14.105l0,107.577l34.616,0c47.659,0 56.09,-13.162 56.09,-53.714c0,-40.405 -8.431,-53.863 -56.09,-53.863l-34.616,0Zm31.062,25.585c21.918,0.297 28.138,0.149 28.138,28.278c0,26.796 -6.22,28.277 -28.138,28.277l0,-56.555Z" style="fill:#fff;fill-rule:nonzero;stroke:#000;stroke-width:2.05px;"/><path d="M222.873,93.324l34.774,0l-38.325,-107.281l-29.151,0l-39.362,107.281l32.259,0l4.883,-17.908l30.483,0l4.439,17.908Zm-28.707,-41.125l9.766,-36.112l8.879,36.112l-18.645,0Z" style="fill:#fff;fill-rule:nonzero;stroke:#000;stroke-width:2.05px;"/><path d="M299.832,-13.957l-17.608,69.695l-17.609,-69.695l-35.514,0l38.473,107.281l26.635,0l38.77,-107.281l-33.147,0Z" style="fill:#fff;fill-rule:nonzero;stroke:#000;stroke-width:2.05px;"/><path d="M359.619,67.591l0,-17.039l37.74,0l0,-23.069l-37.74,0l0,-15.707l45.14,0l0,-25.733l-76.202,0l0,107.281l77.386,0l0,-25.733l-46.324,0Z" style="fill:#fff;fill-rule:nonzero;stroke:#000;stroke-width:2.05px;"/><path d="M166.035,213.324l-18.788,-38.328c10.797,-5.028 13.756,-14.493 13.756,-31.963c0,-30.483 -9.023,-36.99 -52.092,-36.99l-37.282,0l0,107.281l31.062,0l0,-33.3l5.183,0c3.555,0 6.961,0 10.071,-0.148l13.476,33.448l34.614,0Zm-63.344,-57.257l0,-26.511l5.183,0c16.735,0 22.659,0.444 22.659,13.329c0,12.737 -5.924,13.182 -22.659,13.182l-5.183,0Z" style="fill:#fff;fill-rule:nonzero;stroke:#000;stroke-width:2.05px;"/><path d="M199.541,216.432c31.672,0 47.203,-14.346 47.203,-56.675c0,-42.328 -15.531,-56.822 -47.203,-56.822c-31.671,0 -47.202,14.494 -47.202,56.822c0,42.329 15.531,56.675 47.202,56.675Zm0,-26.769c-11.402,0 -15.549,-5.774 -15.549,-29.906c0,-24.279 4.147,-30.053 15.549,-30.053c11.255,0 15.402,5.774 15.402,30.053c0,24.132 -4.147,29.906 -15.402,29.906Z" style="fill:#fff;fill-rule:nonzero;stroke:#000;stroke-width:2.05px;"/><path d="M235.712,177.66c0,27.681 12.572,38.772 45.279,38.772c33.594,0 45.87,-11.979 45.87,-34.624c0,-43.026 -57.868,-27.473 -57.868,-45.702c0,-5.202 4.147,-9.066 13.034,-9.066c8.293,0 13.477,4.31 13.477,12.633l29.137,0c0,-25.499 -11.98,-36.886 -43.799,-36.886c-31.077,0 -43.206,12.274 -43.206,32.279c0,48.223 57.276,28.557 57.276,48.075c0,5.778 -5.332,9.038 -15.107,9.038c-7.847,0 -14.512,-3.556 -14.512,-14.519l-29.581,0Z" style="fill:#fff;fill-rule:nonzero;stroke:#000;stroke-width:2.05px;"/><path d="M314.941,177.66c0,27.681 12.572,38.772 45.28,38.772c33.593,0 45.87,-11.979 45.87,-34.624c0,-43.026 -57.868,-27.473 -57.868,-45.702c0,-5.202 4.147,-9.066 13.033,-9.066c8.294,0 13.477,4.31 13.477,12.633l29.138,0c0,-25.499 -11.981,-36.886 -43.8,-36.886c-31.077,0 -43.206,12.274 -43.206,32.279c0,48.223 57.276,28.557 57.276,48.075c0,5.778 -5.331,9.038 -15.107,9.038c-7.847,0 -14.511,-3.556 -14.511,-14.519l-29.582,0Z" style="fill:#fff;fill-rule:nonzero;stroke:#000;stroke-width:2.05px;"/></g><g transform="matrix(1.46331,0,0,1.46331,-20.7937,21.8754)"><path d="M21.182,236.232l0,-1.612l3.57,0l0,-2.182l-3.57,0l0,-1.486l4.27,0l0,-2.434l-7.208,0l0,10.148l7.32,0l0,-2.434l-4.382,0Z" style="fill:#fdfefd;fill-rule:nonzero;"/><path d="M33.205,228.518l0.07,6.046l-3.273,-6.046l-3.036,0l0,10.148l2.406,0l0,-5.949l3.217,5.949l3.054,0l0,-10.148l-2.438,0Z" style="fill:#fdfefd;fill-rule:nonzero;"/><path d="M45.724,233.32l-4.017,0l0,1.902l1.485,0l0,0.771c0.014,0.294 -0.462,0.603 -1.401,0.603c-1.232,0 -1.667,-0.547 -1.667,-2.997c0,-2.381 0.407,-2.927 1.443,-2.927c0.841,0 1.289,0.364 1.345,1.583l2.798,0c0,-2.814 -1.273,-4.031 -4.143,-4.031c-2.968,0 -4.437,1.329 -4.437,5.375c0,4.046 1.469,5.375 4.437,5.361c2.926,-0.014 4.157,-1.399 4.157,-1.707l0,-3.933Z" style="fill:#fdfefd;fill-rule:nonzero;"/><rect x="47.336" y="228.518" width="2.938" height="10.148" style="fill:#fdfefd;fill-rule:nonzero;"/><path d="M58.335,228.518l0.07,6.046l-3.273,-6.046l-3.036,0l0,10.148l2.406,0l0,-5.949l3.217,5.949l3.054,0l0,-10.148l-2.438,0Z" style="fill:#fdfefd;fill-rule:nonzero;"/><path d="M65.534,236.232l0,-1.612l3.57,0l0,-2.182l-3.57,0l0,-1.486l4.27,0l0,-2.434l-7.208,0l0,10.148l7.32,0l0,-2.434l-4.382,0Z" style="fill:#fdfefd;fill-rule:nonzero;"/><path d="M74.256,236.232l0,-1.612l3.57,0l0,-2.182l-3.57,0l0,-1.486l4.27,0l0,-2.434l-7.208,0l0,10.148l7.32,0l0,-2.434l-4.382,0Z" style="fill:#fdfefd;fill-rule:nonzero;"/><path d="M88.97,238.666l-1.777,-3.626c1.022,-0.475 1.301,-1.371 1.301,-3.023c0,-2.884 -0.853,-3.499 -4.927,-3.499l-3.527,0l0,10.148l2.938,0l0,-3.15l0.491,0c0.336,0 0.658,0 0.952,-0.014l1.275,3.164l3.274,0Zm-5.992,-5.416l0,-2.508l0.491,0c1.583,0 2.143,0.042 2.143,1.261c0,1.205 -0.56,1.247 -2.143,1.247l-0.491,0Z" style="fill:#fdfefd;fill-rule:nonzero;"/><rect x="90.064" y="228.518" width="2.938" height="10.148" style="fill:#fdfefd;fill-rule:nonzero;"/><path d="M101.063,228.518l0.07,6.046l-3.273,-6.046l-3.036,0l0,10.148l2.406,0l0,-5.949l3.217,5.949l3.054,0l0,-10.148l-2.438,0Z" style="fill:#fdfefd;fill-rule:nonzero;"/><path d="M113.582,233.32l-4.017,0l0,1.902l1.485,0l0,0.771c0.014,0.294 -0.462,0.603 -1.401,0.603c-1.232,0 -1.667,-0.547 -1.667,-2.997c0,-2.381 0.407,-2.927 1.443,-2.927c0.841,0 1.289,0.364 1.345,1.583l2.798,0c0,-2.814 -1.273,-4.031 -4.143,-4.031c-2.968,0 -4.437,1.329 -4.437,5.375c0,4.046 1.469,5.375 4.437,5.361c2.926,-0.014 4.157,-1.399 4.157,-1.707l0,-3.933Z" style="fill:#fdfefd;fill-rule:nonzero;"/><path d="M120.848,236.036l0,-7.518l-2.938,0l0,10.148l6.158,0l0,-2.63l-3.22,0Z" style="fill:#fdfefd;fill-rule:nonzero;"/><path d="M128.156,236.232l0,-1.612l3.57,0l0,-2.182l-3.57,0l0,-1.486l4.27,0l0,-2.434l-7.208,0l0,10.148l7.32,0l0,-2.434l-4.382,0Z" style="fill:#fdfefd;fill-rule:nonzero;"/><path d="M139.847,238.666l3.289,0l-3.625,-10.148l-2.757,0l-3.724,10.148l3.052,0l0.462,-1.694l2.883,0l0.42,1.694Zm-2.715,-3.89l0.923,-3.416l0.84,3.416l-1.763,0Z" style="fill:#fdfefd;fill-rule:nonzero;"/><path d="M144.048,228.504l0,10.176l3.275,0c4.508,0 5.305,-1.245 5.305,-5.081c0,-3.822 -0.797,-5.095 -5.305,-5.095l-3.275,0Zm2.938,2.42c2.074,0.028 2.662,0.014 2.662,2.675c0,2.534 -0.588,2.675 -2.662,2.675l0,-5.35Z" style="fill:#fdfefd;fill-rule:nonzero;"/><path d="M157.038,236.232l0,-1.612l3.57,0l0,-2.182l-3.57,0l0,-1.486l4.27,0l0,-2.434l-7.208,0l0,10.148l7.32,0l0,-2.434l-4.382,0Z" style="fill:#fdfefd;fill-rule:nonzero;"/><path d="M171.752,238.666l-1.777,-3.626c1.022,-0.475 1.301,-1.371 1.301,-3.023c0,-2.884 -0.853,-3.499 -4.927,-3.499l-3.527,0l0,10.148l2.938,0l0,-3.15l0.491,0c0.336,0 0.658,0 0.952,-0.014l1.275,3.164l3.274,0Zm-5.992,-5.416l0,-2.508l0.491,0c1.583,0 2.143,0.042 2.143,1.261c0,1.205 -0.56,1.247 -2.143,1.247l-0.491,0Z" style="fill:#fdfefd;fill-rule:nonzero;"/><path d="M175.646,233.29l2.798,0l0,-2.168l-2.798,0l0,2.168Zm0,5.124l2.798,0l0,-2.252l-2.798,0l0,2.252Z" style="fill:#fdfefd;fill-rule:nonzero;"/><path d="M189.938,230.952l0,-2.434l-6.858,0l0,10.148l2.938,0l0,-3.612l3.22,0l0,-2.238l-3.22,0l0,-1.864l3.92,0Z" style="fill:#fdfefd;fill-rule:nonzero;"/><path d="M195.203,238.96c3.332,0 4.185,-1.441 4.185,-5.01l0,-5.432l-2.98,0l0,5.264c0,2.198 -0.336,2.562 -1.219,2.562c-0.868,0 -1.233,-0.364 -1.233,-2.562l0,-5.264l-2.938,0l0,5.432c0,3.569 0.882,5.01 4.185,5.01Z" style="fill:#fdfefd;fill-rule:nonzero;"/><path d="M204.162,236.036l0,-7.518l-2.938,0l0,10.148l6.158,0l0,-2.63l-3.22,0Z" style="fill:#fdfefd;fill-rule:nonzero;"/><path d="M211.47,236.036l0,-7.518l-2.938,0l0,10.148l6.158,0l0,-2.63l-3.22,0Z" style="fill:#fdfefd;fill-rule:nonzero;"/><rect x="215.406" y="233.166" width="3.834" height="2.112" style="fill:#fdfefd;fill-rule:nonzero;"/><path d="M220.768,235.292c0,2.619 1.189,3.668 4.283,3.668c3.178,0 4.339,-1.133 4.339,-3.275c0,-4.071 -5.474,-2.599 -5.474,-4.324c0,-0.492 0.393,-0.857 1.233,-0.857c0.785,0 1.275,0.408 1.275,1.195l2.756,0c0,-2.412 -1.133,-3.489 -4.143,-3.489c-2.939,0 -4.087,1.161 -4.087,3.053c0,4.562 5.418,2.701 5.418,4.548c0,0.546 -0.504,0.855 -1.429,0.855c-0.742,0 -1.373,-0.337 -1.373,-1.374l-2.798,0Z" style="fill:#fdfefd;fill-rule:nonzero;"/><path d="M237.839,228.518l-7.81,0l0,2.63l2.436,0l-0.014,7.518l2.938,0l0.014,-7.518l2.436,0l0,-2.63Z" style="fill:#fdfefd;fill-rule:nonzero;"/><path d="M243.937,238.666l3.289,0l-3.625,-10.148l-2.757,0l-3.724,10.148l3.052,0l0.462,-1.694l2.883,0l0.42,1.694Zm-2.715,-3.89l0.923,-3.416l0.84,3.416l-1.763,0Z" style="fill:#fdfefd;fill-rule:nonzero;"/><path d="M251.791,238.96c2.646,0 4.185,-1.091 4.199,-4.395l-2.896,0c-0.07,1.526 -0.504,1.863 -1.303,1.863c-1.008,0 -1.415,-0.533 -1.415,-2.829c0,-2.311 0.407,-2.843 1.415,-2.843c0.813,0 1.233,0.336 1.303,1.778l2.896,0c-0.014,-3.233 -1.581,-4.31 -4.199,-4.31c-2.94,0 -4.409,1.371 -4.409,5.375c0,4.004 1.469,5.361 4.409,5.361Z" style="fill:#fdfefd;fill-rule:nonzero;"/><path d="M263.284,238.666l3.402,0l-3.78,-5.627l3.626,-4.521l-3.262,0l-2.94,4.311l0,-4.311l-2.938,0l0,10.148l2.938,0l0,-2.408l0.84,-1.05l2.114,3.458Z" style="fill:#fdfefd;fill-rule:nonzero;"/><path d="M270.314,228.504l0,10.176l3.275,0c4.508,0 5.305,-1.245 5.305,-5.081c0,-3.822 -0.797,-5.095 -5.305,-5.095l-3.275,0Zm2.938,2.42c2.074,0.028 2.662,0.014 2.662,2.675c0,2.534 -0.588,2.675 -2.662,2.675l0,-5.35Z" style="fill:#fdfefd;fill-rule:nonzero;"/><path d="M283.304,236.232l0,-1.612l3.57,0l0,-2.182l-3.57,0l0,-1.486l4.27,0l0,-2.434l-7.208,0l0,10.148l7.32,0l0,-2.434l-4.382,0Z" style="fill:#fdfefd;fill-rule:nonzero;"/><path d="M294.869,228.518l-1.666,6.592l-1.665,-6.592l-3.36,0l3.64,10.148l2.519,0l3.667,-10.148l-3.135,0Z" style="fill:#fdfefd;fill-rule:nonzero;"/><path d="M301.854,236.232l0,-1.612l3.57,0l0,-2.182l-3.57,0l0,-1.486l4.27,0l0,-2.434l-7.208,0l0,10.148l7.32,0l0,-2.434l-4.382,0Z" style="fill:#fdfefd;fill-rule:nonzero;"/><path d="M310.576,236.036l0,-7.518l-2.938,0l0,10.148l6.158,0l0,-2.63l-3.22,0Z" style="fill:#fdfefd;fill-rule:nonzero;"/><path d="M318.963,238.96c2.996,0 4.465,-1.357 4.465,-5.361c0,-4.004 -1.469,-5.375 -4.465,-5.375c-2.996,0 -4.465,1.371 -4.465,5.375c0,4.004 1.469,5.361 4.465,5.361Zm0,-2.532c-1.078,0 -1.471,-0.547 -1.471,-2.829c0,-2.297 0.393,-2.843 1.471,-2.843c1.065,0 1.457,0.546 1.457,2.843c0,2.282 -0.392,2.829 -1.457,2.829Z" style="fill:#fdfefd;fill-rule:nonzero;"/><path d="M324.902,228.504l0,10.162l2.928,0l0.014,-2.884l0.475,0c4.042,0 5.063,-0.616 5.063,-3.639c0,-3.024 -1.035,-3.639 -4.979,-3.639l-3.501,0Zm2.942,4.928l0.014,-2.62l0.461,0c1.566,0 2.195,0.056 2.195,1.303c0,1.246 -0.629,1.317 -2.195,1.317l-0.475,0Z" style="fill:#fdfefd;fill-rule:nonzero;"/><path d="M337.624,236.232l0,-1.612l3.57,0l0,-2.182l-3.57,0l0,-1.486l4.27,0l0,-2.434l-7.208,0l0,10.148l7.32,0l0,-2.434l-4.382,0Z" style="fill:#fdfefd;fill-rule:nonzero;"/><path d="M352.338,238.666l-1.777,-3.626c1.022,-0.475 1.301,-1.371 1.301,-3.023c0,-2.884 -0.853,-3.499 -4.927,-3.499l-3.527,0l0,10.148l2.938,0l0,-3.15l0.491,0c0.336,0 0.658,0 0.952,-0.014l1.275,3.164l3.274,0Zm-5.992,-5.416l0,-2.508l0.491,0c1.583,0 2.143,0.042 2.143,1.261c0,1.205 -0.56,1.247 -2.143,1.247l-0.491,0Z" style="fill:#fdfefd;fill-rule:nonzero;"/><path d="M22.317,258.96c2.646,0 4.185,-1.091 4.199,-4.395l-2.896,0c-0.07,1.526 -0.504,1.863 -1.303,1.863c-1.008,0 -1.415,-0.533 -1.415,-2.829c0,-2.311 0.407,-2.843 1.415,-2.843c0.813,0 1.233,0.336 1.303,1.778l2.896,0c-0.014,-3.233 -1.581,-4.31 -4.199,-4.31c-2.94,0 -4.409,1.371 -4.409,5.375c0,4.004 1.469,5.361 4.409,5.361Z" style="fill:#fdfefd;fill-rule:nonzero;"/><path d="M31.976,256.232l0,-1.612l3.57,0l0,-2.182l-3.57,0l0,-1.486l4.27,0l0,-2.434l-7.208,0l0,10.148l7.32,0l0,-2.434l-4.382,0Z" style="fill:#fdfefd;fill-rule:nonzero;"/><path d="M47.81,258.666l-1.777,-3.626c1.022,-0.475 1.301,-1.371 1.301,-3.023c0,-2.884 -0.853,-3.499 -4.927,-3.499l-3.527,0l0,10.148l2.938,0l0,-3.15l0.491,0c0.336,0 0.658,0 0.952,-0.014l1.275,3.164l3.274,0Zm-5.992,-5.416l0,-2.508l0.491,0c1.583,0 2.143,0.042 2.143,1.261c0,1.205 -0.56,1.247 -2.143,1.247l-0.491,0Z" style="fill:#fdfefd;fill-rule:nonzero;"/><path d="M57.001,248.518l-7.81,0l0,2.63l2.436,0l-0.014,7.518l2.938,0l0.014,-7.518l2.436,0l0,-2.63Z" style="fill:#fdfefd;fill-rule:nonzero;"/><rect x="59.124" y="248.518" width="2.938" height="10.148" style="fill:#fdfefd;fill-rule:nonzero;"/><path d="M71.862,250.952l0,-2.434l-6.858,0l0,10.148l2.938,0l0,-3.612l3.22,0l0,-2.238l-3.22,0l0,-1.864l3.92,0Z" style="fill:#fdfefd;fill-rule:nonzero;"/><rect x="74.034" y="248.518" width="2.938" height="10.148" style="fill:#fdfefd;fill-rule:nonzero;"/><path d="M82.852,256.232l0,-1.612l3.57,0l0,-2.182l-3.57,0l0,-1.486l4.27,0l0,-2.434l-7.208,0l0,10.148l7.32,0l0,-2.434l-4.382,0Z" style="fill:#fdfefd;fill-rule:nonzero;"/><path d="M89.756,248.504l0,10.176l3.275,0c4.508,0 5.305,-1.245 5.305,-5.081c0,-3.822 -0.797,-5.095 -5.305,-5.095l-3.275,0Zm2.938,2.42c2.074,0.028 2.662,0.014 2.662,2.675c0,2.534 -0.588,2.675 -2.662,2.675l0,-5.35Z" style="fill:#fdfefd;fill-rule:nonzero;"/><path d="M112.358,258.666l3.289,0l-3.625,-10.148l-2.757,0l-3.724,10.148l3.052,0l0.462,-1.694l2.883,0l0.42,1.694Zm-2.715,-3.89l0.923,-3.416l0.84,3.416l-1.763,0Z" style="fill:#fdfefd;fill-rule:nonzero;"/><path d="M121.332,258.96c2.646,0 4.185,-1.091 4.199,-4.395l-2.896,0c-0.07,1.526 -0.504,1.863 -1.303,1.863c-1.008,0 -1.415,-0.533 -1.415,-2.829c0,-2.311 0.407,-2.843 1.415,-2.843c0.813,0 1.233,0.336 1.303,1.778l2.896,0c-0.014,-3.233 -1.581,-4.31 -4.199,-4.31c-2.94,0 -4.409,1.371 -4.409,5.375c0,4.004 1.469,5.361 4.409,5.361Z" style="fill:#fdfefd;fill-rule:nonzero;"/><path d="M132.126,258.96c2.646,0 4.185,-1.091 4.199,-4.395l-2.896,0c-0.07,1.526 -0.504,1.863 -1.303,1.863c-1.008,0 -1.415,-0.533 -1.415,-2.829c0,-2.311 0.407,-2.843 1.415,-2.843c0.813,0 1.233,0.336 1.303,1.778l2.896,0c-0.014,-3.233 -1.581,-4.31 -4.199,-4.31c-2.94,0 -4.409,1.371 -4.409,5.375c0,4.004 1.469,5.361 4.409,5.361Z" style="fill:#fdfefd;fill-rule:nonzero;"/><path d="M141.785,256.232l0,-1.612l3.57,0l0,-2.182l-3.57,0l0,-1.486l4.27,0l0,-2.434l-7.208,0l0,10.148l7.32,0l0,-2.434l-4.382,0Z" style="fill:#fdfefd;fill-rule:nonzero;"/><path d="M148.227,255.292c0,2.619 1.189,3.668 4.283,3.668c3.178,0 4.339,-1.133 4.339,-3.275c0,-4.071 -5.474,-2.599 -5.474,-4.324c0,-0.492 0.393,-0.857 1.233,-0.857c0.785,0 1.275,0.408 1.275,1.195l2.756,0c0,-2.412 -1.133,-3.489 -4.143,-3.489c-2.939,0 -4.087,1.161 -4.087,3.053c0,4.562 5.418,2.701 5.418,4.548c0,0.546 -0.504,0.855 -1.429,0.855c-0.742,0 -1.373,-0.337 -1.373,-1.374l-2.798,0Z" style="fill:#fdfefd;fill-rule:nonzero;"/><path d="M158.895,255.292c0,2.619 1.189,3.668 4.283,3.668c3.178,0 4.339,-1.133 4.339,-3.275c0,-4.071 -5.474,-2.599 -5.474,-4.324c0,-0.492 0.393,-0.857 1.233,-0.857c0.785,0 1.275,0.408 1.275,1.195l2.756,0c0,-2.412 -1.133,-3.489 -4.143,-3.489c-2.939,0 -4.087,1.161 -4.087,3.053c0,4.562 5.418,2.701 5.418,4.548c0,0.546 -0.504,0.855 -1.429,0.855c-0.742,0 -1.373,-0.337 -1.373,-1.374l-2.798,0Z" style="fill:#fdfefd;fill-rule:nonzero;"/><rect x="170.025" y="248.518" width="2.938" height="10.148" style="fill:#fdfefd;fill-rule:nonzero;"/><path d="M182.583,253.417c1.049,-0.42 1.342,-1.148 1.342,-2.185c0,-1.889 -0.769,-2.728 -4.521,-2.728l-3.499,0l0,10.176l3.387,0c4.48,0 5.053,-0.853 5.053,-2.869c0,-1.135 -0.279,-1.961 -1.762,-2.394Zm-3.263,-2.815c1.485,0 1.835,0.21 1.835,0.967c0,0.742 -0.35,0.953 -1.835,0.953l-0.477,0l0,-1.92l0.477,0Zm-0.477,5.98l0,-2.186l0.477,0c1.765,0 2.129,0.238 2.129,1.121c0,0.84 -0.364,1.065 -2.129,1.065l-0.477,0Z" style="fill:#fdfefd;fill-rule:nonzero;"/><rect x="186.979" y="248.518" width="2.938" height="10.148" style="fill:#fdfefd;fill-rule:nonzero;"/><path d="M195.797,256.036l0,-7.518l-2.938,0l0,10.148l6.158,0l0,-2.63l-3.22,0Z" style="fill:#fdfefd;fill-rule:nonzero;"/><rect x="201.287" y="248.518" width="2.938" height="10.148" style="fill:#fdfefd;fill-rule:nonzero;"/><path d="M214.228,248.518l-7.81,0l0,2.63l2.436,0l-0.014,7.518l2.938,0l0.014,-7.518l2.436,0l0,-2.63Z" style="fill:#fdfefd;fill-rule:nonzero;"/><path d="M225.211,248.518l-3.052,0l-1.637,4.199l-1.693,-4.199l-3.332,0l3.402,6.578l0,3.57l2.938,0l0,-3.556l3.374,-6.592Z" style="fill:#fdfefd;fill-rule:nonzero;"/><path d="M232.768,248.504l0,10.162l2.928,0l0.014,-2.884l0.475,0c4.042,0 5.063,-0.616 5.063,-3.639c0,-3.024 -1.035,-3.639 -4.979,-3.639l-3.501,0Zm2.942,4.928l0.014,-2.62l0.461,0c1.566,0 2.195,0.056 2.195,1.303c0,1.246 -0.629,1.317 -2.195,1.317l-0.475,0Z" style="fill:#fdfefd;fill-rule:nonzero;"/><path d="M252.602,258.666l-1.777,-3.626c1.022,-0.475 1.301,-1.371 1.301,-3.023c0,-2.884 -0.853,-3.499 -4.927,-3.499l-3.527,0l0,10.148l2.938,0l0,-3.15l0.491,0c0.336,0 0.658,0 0.952,-0.014l1.275,3.164l3.274,0Zm-5.992,-5.416l0,-2.508l0.491,0c1.583,0 2.143,0.042 2.143,1.261c0,1.205 -0.56,1.247 -2.143,1.247l-0.491,0Z" style="fill:#fdfefd;fill-rule:nonzero;"/><path d="M258.945,258.96c2.996,0 4.465,-1.357 4.465,-5.361c0,-4.004 -1.469,-5.375 -4.465,-5.375c-2.996,0 -4.465,1.371 -4.465,5.375c0,4.004 1.469,5.361 4.465,5.361Zm0,-2.532c-1.078,0 -1.471,-0.547 -1.471,-2.829c0,-2.297 0.393,-2.843 1.471,-2.843c1.065,0 1.457,0.546 1.457,2.843c0,2.282 -0.392,2.829 -1.457,2.829Z" style="fill:#fdfefd;fill-rule:nonzero;"/><path d="M272.86,250.952l0,-2.434l-6.858,0l0,10.148l2.938,0l0,-3.612l3.22,0l0,-2.238l-3.22,0l0,-1.864l3.92,0Z" style="fill:#fdfefd;fill-rule:nonzero;"/><path d="M277.97,256.232l0,-1.612l3.57,0l0,-2.182l-3.57,0l0,-1.486l4.27,0l0,-2.434l-7.208,0l0,10.148l7.32,0l0,-2.434l-4.382,0Z" style="fill:#fdfefd;fill-rule:nonzero;"/><path d="M284.412,255.292c0,2.619 1.189,3.668 4.283,3.668c3.178,0 4.339,-1.133 4.339,-3.275c0,-4.071 -5.474,-2.599 -5.474,-4.324c0,-0.492 0.393,-0.857 1.233,-0.857c0.785,0 1.275,0.408 1.275,1.195l2.756,0c0,-2.412 -1.133,-3.489 -4.143,-3.489c-2.939,0 -4.087,1.161 -4.087,3.053c0,4.562 5.418,2.701 5.418,4.548c0,0.546 -0.504,0.855 -1.429,0.855c-0.742,0 -1.373,-0.337 -1.373,-1.374l-2.798,0Z" style="fill:#fdfefd;fill-rule:nonzero;"/><path d="M295.08,255.292c0,2.619 1.189,3.668 4.283,3.668c3.178,0 4.339,-1.133 4.339,-3.275c0,-4.071 -5.474,-2.599 -5.474,-4.324c0,-0.492 0.393,-0.857 1.233,-0.857c0.785,0 1.275,0.408 1.275,1.195l2.756,0c0,-2.412 -1.133,-3.489 -4.143,-3.489c-2.939,0 -4.087,1.161 -4.087,3.053c0,4.562 5.418,2.701 5.418,4.548c0,0.546 -0.504,0.855 -1.429,0.855c-0.742,0 -1.373,-0.337 -1.373,-1.374l-2.798,0Z" style="fill:#fdfefd;fill-rule:nonzero;"/><rect x="306.21" y="248.518" width="2.938" height="10.148" style="fill:#fdfefd;fill-rule:nonzero;"/><path d="M316.219,258.96c2.996,0 4.465,-1.357 4.465,-5.361c0,-4.004 -1.469,-5.375 -4.465,-5.375c-2.996,0 -4.465,1.371 -4.465,5.375c0,4.004 1.469,5.361 4.465,5.361Zm0,-2.532c-1.078,0 -1.471,-0.547 -1.471,-2.829c0,-2.297 0.393,-2.843 1.471,-2.843c1.065,0 1.457,0.546 1.457,2.843c0,2.282 -0.392,2.829 -1.457,2.829Z" style="fill:#fdfefd;fill-rule:nonzero;"/><path d="M329.515,248.518l0.07,6.046l-3.273,-6.046l-3.036,0l0,10.148l2.406,0l0,-5.949l3.217,5.949l3.054,0l0,-10.148l-2.438,0Z" style="fill:#fdfefd;fill-rule:nonzero;"/><path d="M340.803,258.666l3.289,0l-3.625,-10.148l-2.757,0l-3.724,10.148l3.052,0l0.462,-1.694l2.883,0l0.42,1.694Zm-2.715,-3.89l0.923,-3.416l0.84,3.416l-1.763,0Z" style="fill:#fdfefd;fill-rule:nonzero;"/><path d="M349.062,256.036l0,-7.518l-2.938,0l0,10.148l6.158,0l0,-2.63l-3.22,0Z" style="fill:#fdfefd;fill-rule:nonzero;"/></g></g></svg>